G04 #@! TF.FileFunction,Soldermask,Top*
%FSLAX46Y46*%
G04 Gerber Fmt 4.6, Leading zero omitted, Abs format (unit mm)*
G04 Created by KiCad (PCBNEW 4.0.5) date Tuesday, September 05, 2017 'PMt' 07:35:30 PM*
%MOMM*%
%LPD*%
G01*
G04 APERTURE LIST*
%ADD10C,0.100000*%
%ADD11C,3.575000*%
%ADD12C,1.700000*%
%ADD13R,1.700000X1.700000*%
%ADD14C,2.398980*%
%ADD15R,2.398980X2.398980*%
%ADD16R,2.127200X2.432000*%
%ADD17O,2.127200X2.432000*%
%ADD18R,2.940000X2.940000*%
%ADD19O,2.940000X2.940000*%
%ADD20R,1.700000X1.900000*%
%ADD21C,2.254200*%
%ADD22C,2.200000*%
G04 APERTURE END LIST*
D10*
D11*
X109220000Y-116840000D03*
X203200000Y-116840000D03*
X203200000Y-43180000D03*
X109220000Y-43180000D03*
D12*
X191135000Y-102910000D03*
D13*
X191135000Y-105410000D03*
D12*
X133731000Y-102783000D03*
D13*
X133731000Y-105283000D03*
D14*
X110741460Y-48895000D03*
D15*
X110741460Y-59055000D03*
D16*
X129540000Y-115443000D03*
D17*
X127000000Y-115443000D03*
X124460000Y-115443000D03*
X121920000Y-115443000D03*
D16*
X187960000Y-115570000D03*
D17*
X185420000Y-115570000D03*
X182880000Y-115570000D03*
X180340000Y-115570000D03*
D18*
X124714000Y-52705000D03*
D19*
X129794000Y-52705000D03*
D20*
X135572500Y-45068500D03*
X135572500Y-47768500D03*
X138112500Y-47768500D03*
X138112500Y-45068500D03*
D21*
X117348000Y-54991000D03*
X117348000Y-49911000D03*
X117348000Y-52451000D03*
D16*
X176470000Y-63540000D03*
D17*
X179010000Y-63540000D03*
X181550000Y-63540000D03*
X184090000Y-63540000D03*
X186630000Y-63540000D03*
X189170000Y-63540000D03*
X191710000Y-63540000D03*
X194250000Y-63540000D03*
X116840000Y-110490000D03*
X119380000Y-110490000D03*
X121920000Y-110490000D03*
X124460000Y-110490000D03*
X127000000Y-110490000D03*
X129540000Y-110490000D03*
X132080000Y-110490000D03*
D16*
X134620000Y-110490000D03*
D17*
X134620000Y-97790000D03*
X132080000Y-97790000D03*
X129540000Y-97790000D03*
X127000000Y-97790000D03*
X124460000Y-97790000D03*
X121920000Y-97790000D03*
X119380000Y-97790000D03*
X116840000Y-97790000D03*
X175260000Y-110490000D03*
X177800000Y-110490000D03*
X180340000Y-110490000D03*
X182880000Y-110490000D03*
X185420000Y-110490000D03*
X187960000Y-110490000D03*
X190500000Y-110490000D03*
D16*
X193040000Y-110490000D03*
D17*
X193040000Y-97790000D03*
X190500000Y-97790000D03*
X187960000Y-97790000D03*
X185420000Y-97790000D03*
X182880000Y-97790000D03*
X180340000Y-97790000D03*
X177800000Y-97790000D03*
X175260000Y-97790000D03*
D22*
X155575000Y-66548000D03*
X155575000Y-69088000D03*
X155575000Y-58674000D03*
X155575000Y-56134000D03*
X158496000Y-75311000D03*
X158496000Y-72771000D03*
X158496000Y-67691000D03*
X158496000Y-70231000D03*
X158496000Y-60071000D03*
X158496000Y-57531000D03*
X158496000Y-62611000D03*
X158496000Y-65151000D03*
X158496000Y-54991000D03*
X158496000Y-52451000D03*
X158496000Y-47371000D03*
X158496000Y-49911000D03*
X143256000Y-49911000D03*
X143256000Y-47371000D03*
X143256000Y-52451000D03*
X143256000Y-54991000D03*
X143256000Y-65151000D03*
X143256000Y-62611000D03*
X143256000Y-57531000D03*
X143256000Y-60071000D03*
X143256000Y-70231000D03*
X143256000Y-67691000D03*
X143256000Y-72771000D03*
X143256000Y-75311000D03*
D16*
X162122000Y-92790000D03*
D17*
X159582000Y-92790000D03*
X157042000Y-92790000D03*
X154502000Y-92790000D03*
X151962000Y-92790000D03*
D16*
X176470000Y-83870000D03*
D17*
X179010000Y-83870000D03*
X181550000Y-83870000D03*
X184090000Y-83870000D03*
X186630000Y-83870000D03*
X189170000Y-83870000D03*
X191710000Y-83870000D03*
X194250000Y-83870000D03*
M02*
