M48
;DRILL file {KiCad 4.0.5} date Tuesday, September 05, 2017 'PMt' 07:35:54 PM
;FORMAT={-:-/ absolute / metric / decimal}
FMAT,2
METRIC,TZ
T1C0.400
T2C0.800
T3C1.000
T4C1.001
T5C1.016
T6C1.092
T7C1.270
T8C1.300
T9C3.175
%
G90
G05
M71
T1
X116.84Y-83.693
X120.65Y-81.026
X135.128Y-91.313
X140.081Y-44.196
X169.926Y-70.231
X173.101Y-71.628
X173.228Y-69.85
X176.022Y-66.675
X193.294Y-91.313
T2
X133.731Y-102.783
X133.731Y-105.283
X191.135Y-102.91
X191.135Y-105.41
T3
X143.256Y-47.371
X143.256Y-49.911
X143.256Y-52.451
X143.256Y-54.991
X143.256Y-57.531
X143.256Y-60.071
X143.256Y-62.611
X143.256Y-65.151
X143.256Y-67.691
X143.256Y-70.231
X143.256Y-72.771
X143.256Y-75.311
X155.575Y-56.134
X155.575Y-58.674
X155.575Y-66.548
X155.575Y-69.088
X158.496Y-47.371
X158.496Y-49.911
X158.496Y-52.451
X158.496Y-54.991
X158.496Y-57.531
X158.496Y-60.071
X158.496Y-62.611
X158.496Y-65.151
X158.496Y-67.691
X158.496Y-70.231
X158.496Y-72.771
X158.496Y-75.311
T4
X110.741Y-59.055
T5
X116.84Y-97.79
X116.84Y-110.49
X119.38Y-97.79
X119.38Y-110.49
X121.92Y-97.79
X121.92Y-110.49
X121.92Y-115.443
X124.46Y-97.79
X124.46Y-110.49
X124.46Y-115.443
X127.Y-97.79
X127.Y-110.49
X127.Y-115.443
X129.54Y-97.79
X129.54Y-110.49
X129.54Y-115.443
X132.08Y-97.79
X132.08Y-110.49
X134.62Y-97.79
X134.62Y-110.49
X151.962Y-92.79
X154.502Y-92.79
X157.042Y-92.79
X159.582Y-92.79
X162.122Y-92.79
X175.26Y-97.79
X175.26Y-110.49
X176.47Y-63.54
X176.47Y-83.87
X177.8Y-97.79
X177.8Y-110.49
X179.01Y-63.54
X179.01Y-83.87
X180.34Y-97.79
X180.34Y-110.49
X180.34Y-115.57
X181.55Y-63.54
X181.55Y-83.87
X182.88Y-97.79
X182.88Y-110.49
X182.88Y-115.57
X184.09Y-63.54
X184.09Y-83.87
X185.42Y-97.79
X185.42Y-110.49
X185.42Y-115.57
X186.63Y-63.54
X186.63Y-83.87
X187.96Y-97.79
X187.96Y-110.49
X187.96Y-115.57
X189.17Y-63.54
X189.17Y-83.87
X190.5Y-97.79
X190.5Y-110.49
X191.71Y-63.54
X191.71Y-83.87
X193.04Y-97.79
X193.04Y-110.49
X194.25Y-63.54
X194.25Y-83.87
T6
X117.348Y-49.911
X117.348Y-52.451
X117.348Y-54.991
T7
X110.741Y-48.895
T8
X124.714Y-52.705
X129.794Y-52.705
T9
X109.22Y-43.18
X109.22Y-116.84
X203.2Y-43.18
X203.2Y-116.84
T0
M30
