G04 #@! TF.FileFunction,Copper,L2,Bot,Signal*
%FSLAX46Y46*%
G04 Gerber Fmt 4.6, Leading zero omitted, Abs format (unit mm)*
G04 Created by KiCad (PCBNEW 4.0.5) date Tuesday, September 05, 2017 'PMt' 07:35:30 PM*
%MOMM*%
%LPD*%
G01*
G04 APERTURE LIST*
%ADD10C,0.100000*%
%ADD11C,1.300000*%
%ADD12R,1.300000X1.300000*%
%ADD13C,1.998980*%
%ADD14R,1.998980X1.998980*%
%ADD15R,1.727200X2.032000*%
%ADD16O,1.727200X2.032000*%
%ADD17R,2.540000X2.540000*%
%ADD18O,2.540000X2.540000*%
%ADD19R,1.300000X1.500000*%
%ADD20C,1.854200*%
%ADD21C,1.800000*%
%ADD22C,0.600000*%
%ADD23C,0.304800*%
%ADD24C,0.203200*%
%ADD25C,0.152400*%
G04 APERTURE END LIST*
D10*
D11*
X191135000Y-102910000D03*
D12*
X191135000Y-105410000D03*
D11*
X133731000Y-102783000D03*
D12*
X133731000Y-105283000D03*
D13*
X110741460Y-48895000D03*
D14*
X110741460Y-59055000D03*
D15*
X129540000Y-115443000D03*
D16*
X127000000Y-115443000D03*
X124460000Y-115443000D03*
X121920000Y-115443000D03*
D15*
X187960000Y-115570000D03*
D16*
X185420000Y-115570000D03*
X182880000Y-115570000D03*
X180340000Y-115570000D03*
D17*
X124714000Y-52705000D03*
D18*
X129794000Y-52705000D03*
D19*
X185420000Y-91360000D03*
X185420000Y-94060000D03*
X187960000Y-94060000D03*
X187960000Y-91360000D03*
X190500000Y-91360000D03*
X190500000Y-94060000D03*
D20*
X117348000Y-54991000D03*
X117348000Y-49911000D03*
X117348000Y-52451000D03*
D15*
X176470000Y-63540000D03*
D16*
X179010000Y-63540000D03*
X181550000Y-63540000D03*
X184090000Y-63540000D03*
X186630000Y-63540000D03*
X189170000Y-63540000D03*
X191710000Y-63540000D03*
X194250000Y-63540000D03*
X116840000Y-110490000D03*
X119380000Y-110490000D03*
X121920000Y-110490000D03*
X124460000Y-110490000D03*
X127000000Y-110490000D03*
X129540000Y-110490000D03*
X132080000Y-110490000D03*
D15*
X134620000Y-110490000D03*
D16*
X134620000Y-97790000D03*
X132080000Y-97790000D03*
X129540000Y-97790000D03*
X127000000Y-97790000D03*
X124460000Y-97790000D03*
X121920000Y-97790000D03*
X119380000Y-97790000D03*
X116840000Y-97790000D03*
X175260000Y-110490000D03*
X177800000Y-110490000D03*
X180340000Y-110490000D03*
X182880000Y-110490000D03*
X185420000Y-110490000D03*
X187960000Y-110490000D03*
X190500000Y-110490000D03*
D15*
X193040000Y-110490000D03*
D16*
X193040000Y-97790000D03*
X190500000Y-97790000D03*
X187960000Y-97790000D03*
X185420000Y-97790000D03*
X182880000Y-97790000D03*
X180340000Y-97790000D03*
X177800000Y-97790000D03*
X175260000Y-97790000D03*
D21*
X155575000Y-66548000D03*
X155575000Y-69088000D03*
X155575000Y-58674000D03*
X155575000Y-56134000D03*
X158496000Y-75311000D03*
X158496000Y-72771000D03*
X158496000Y-67691000D03*
X158496000Y-70231000D03*
X158496000Y-60071000D03*
X158496000Y-57531000D03*
X158496000Y-62611000D03*
X158496000Y-65151000D03*
X158496000Y-54991000D03*
X158496000Y-52451000D03*
X158496000Y-47371000D03*
X158496000Y-49911000D03*
X143256000Y-49911000D03*
X143256000Y-47371000D03*
X143256000Y-52451000D03*
X143256000Y-54991000D03*
X143256000Y-65151000D03*
X143256000Y-62611000D03*
X143256000Y-57531000D03*
X143256000Y-60071000D03*
X143256000Y-70231000D03*
X143256000Y-67691000D03*
X143256000Y-72771000D03*
X143256000Y-75311000D03*
D15*
X162122000Y-92790000D03*
D16*
X159582000Y-92790000D03*
X157042000Y-92790000D03*
X154502000Y-92790000D03*
X151962000Y-92790000D03*
D15*
X176470000Y-83870000D03*
D16*
X179010000Y-83870000D03*
X181550000Y-83870000D03*
X184090000Y-83870000D03*
X186630000Y-83870000D03*
X189170000Y-83870000D03*
X191710000Y-83870000D03*
X194250000Y-83870000D03*
D19*
X127000000Y-91360000D03*
X127000000Y-94060000D03*
X129540000Y-94060000D03*
X129540000Y-91360000D03*
X132080000Y-91360000D03*
X132080000Y-94060000D03*
D22*
X140081000Y-44196000D03*
X193294000Y-91313000D03*
X135128000Y-91313000D03*
X176022000Y-66675000D03*
X173228000Y-69850000D03*
X173101000Y-71628000D03*
X169926000Y-70231000D03*
X116840000Y-83693000D03*
X120650000Y-81026000D03*
D23*
X187960000Y-91360000D02*
X185420000Y-91360000D01*
X190500000Y-91360000D02*
X187960000Y-91360000D01*
X193294000Y-91313000D02*
X190547000Y-91313000D01*
X190547000Y-91313000D02*
X190500000Y-91360000D01*
X193294000Y-91313000D02*
X193247000Y-91360000D01*
X185420000Y-91360000D02*
X184611000Y-91360000D01*
X184611000Y-91360000D02*
X182880000Y-93091000D01*
X182880000Y-93091000D02*
X182880000Y-97790000D01*
X127000000Y-91360000D02*
X125556000Y-91360000D01*
X124460000Y-92456000D02*
X124460000Y-97790000D01*
X125556000Y-91360000D02*
X124460000Y-92456000D01*
X129540000Y-91360000D02*
X127000000Y-91360000D01*
X132080000Y-91360000D02*
X129540000Y-91360000D01*
X135081000Y-91360000D02*
X132080000Y-91360000D01*
X135128000Y-91313000D02*
X135081000Y-91360000D01*
D24*
X185420000Y-94060000D02*
X185420000Y-97790000D01*
X187960000Y-94060000D02*
X187960000Y-97790000D01*
X190500000Y-94060000D02*
X190500000Y-97790000D01*
X176022000Y-67056000D02*
X176022000Y-66675000D01*
X173228000Y-69850000D02*
X176022000Y-67056000D01*
X171323000Y-71628000D02*
X173101000Y-71628000D01*
X169926000Y-70231000D02*
X171323000Y-71628000D01*
X117983000Y-83693000D02*
X116840000Y-83693000D01*
X120650000Y-81026000D02*
X117983000Y-83693000D01*
X127000000Y-94060000D02*
X127000000Y-97790000D01*
X129540000Y-94060000D02*
X129540000Y-97790000D01*
X132080000Y-94060000D02*
X132080000Y-97790000D01*
D25*
G36*
X162483800Y-60960000D02*
X162489803Y-60989646D01*
X162506868Y-61014621D01*
X162532305Y-61030989D01*
X162560000Y-61036200D01*
X205436400Y-61036200D01*
X205436400Y-119076400D01*
X106983600Y-119076400D01*
X106983600Y-117209720D01*
X107352776Y-117209720D01*
X107636396Y-117896132D01*
X108161105Y-118421758D01*
X108847021Y-118706575D01*
X109589720Y-118707224D01*
X110276132Y-118423604D01*
X110801758Y-117898895D01*
X111086575Y-117212979D01*
X111086577Y-117209720D01*
X201332776Y-117209720D01*
X201616396Y-117896132D01*
X202141105Y-118421758D01*
X202827021Y-118706575D01*
X203569720Y-118707224D01*
X204256132Y-118423604D01*
X204781758Y-117898895D01*
X205066575Y-117212979D01*
X205067224Y-116470280D01*
X204783604Y-115783868D01*
X204258895Y-115258242D01*
X203572979Y-114973425D01*
X202830280Y-114972776D01*
X202143868Y-115256396D01*
X201618242Y-115781105D01*
X201333425Y-116467021D01*
X201332776Y-117209720D01*
X111086577Y-117209720D01*
X111087224Y-116470280D01*
X110803604Y-115783868D01*
X110285863Y-115265222D01*
X120777000Y-115265222D01*
X120777000Y-115620778D01*
X120864006Y-116058185D01*
X121111777Y-116429001D01*
X121482593Y-116676772D01*
X121920000Y-116763778D01*
X122357407Y-116676772D01*
X122728223Y-116429001D01*
X122975994Y-116058185D01*
X123063000Y-115620778D01*
X123063000Y-115265222D01*
X123317000Y-115265222D01*
X123317000Y-115620778D01*
X123404006Y-116058185D01*
X123651777Y-116429001D01*
X124022593Y-116676772D01*
X124460000Y-116763778D01*
X124897407Y-116676772D01*
X125268223Y-116429001D01*
X125515994Y-116058185D01*
X125603000Y-115620778D01*
X125603000Y-115265222D01*
X125857000Y-115265222D01*
X125857000Y-115620778D01*
X125944006Y-116058185D01*
X126191777Y-116429001D01*
X126562593Y-116676772D01*
X127000000Y-116763778D01*
X127437407Y-116676772D01*
X127808223Y-116429001D01*
X128055994Y-116058185D01*
X128143000Y-115620778D01*
X128143000Y-115265222D01*
X128055994Y-114827815D01*
X127808223Y-114456999D01*
X127763327Y-114427000D01*
X128391527Y-114427000D01*
X128391527Y-116459000D01*
X128411009Y-116562539D01*
X128472201Y-116657634D01*
X128565568Y-116721429D01*
X128676400Y-116743873D01*
X130403600Y-116743873D01*
X130507139Y-116724391D01*
X130602234Y-116663199D01*
X130666029Y-116569832D01*
X130688473Y-116459000D01*
X130688473Y-115392222D01*
X179197000Y-115392222D01*
X179197000Y-115747778D01*
X179284006Y-116185185D01*
X179531777Y-116556001D01*
X179902593Y-116803772D01*
X180340000Y-116890778D01*
X180777407Y-116803772D01*
X181148223Y-116556001D01*
X181395994Y-116185185D01*
X181483000Y-115747778D01*
X181483000Y-115392222D01*
X181737000Y-115392222D01*
X181737000Y-115747778D01*
X181824006Y-116185185D01*
X182071777Y-116556001D01*
X182442593Y-116803772D01*
X182880000Y-116890778D01*
X183317407Y-116803772D01*
X183688223Y-116556001D01*
X183935994Y-116185185D01*
X184023000Y-115747778D01*
X184023000Y-115392222D01*
X184277000Y-115392222D01*
X184277000Y-115747778D01*
X184364006Y-116185185D01*
X184611777Y-116556001D01*
X184982593Y-116803772D01*
X185420000Y-116890778D01*
X185857407Y-116803772D01*
X186228223Y-116556001D01*
X186475994Y-116185185D01*
X186563000Y-115747778D01*
X186563000Y-115392222D01*
X186475994Y-114954815D01*
X186228223Y-114583999D01*
X186183327Y-114554000D01*
X186811527Y-114554000D01*
X186811527Y-116586000D01*
X186831009Y-116689539D01*
X186892201Y-116784634D01*
X186985568Y-116848429D01*
X187096400Y-116870873D01*
X188823600Y-116870873D01*
X188927139Y-116851391D01*
X189022234Y-116790199D01*
X189086029Y-116696832D01*
X189108473Y-116586000D01*
X189108473Y-114554000D01*
X189088991Y-114450461D01*
X189027799Y-114355366D01*
X188934432Y-114291571D01*
X188823600Y-114269127D01*
X187096400Y-114269127D01*
X186992861Y-114288609D01*
X186897766Y-114349801D01*
X186833971Y-114443168D01*
X186811527Y-114554000D01*
X186183327Y-114554000D01*
X185857407Y-114336228D01*
X185420000Y-114249222D01*
X184982593Y-114336228D01*
X184611777Y-114583999D01*
X184364006Y-114954815D01*
X184277000Y-115392222D01*
X184023000Y-115392222D01*
X183935994Y-114954815D01*
X183688223Y-114583999D01*
X183317407Y-114336228D01*
X182880000Y-114249222D01*
X182442593Y-114336228D01*
X182071777Y-114583999D01*
X181824006Y-114954815D01*
X181737000Y-115392222D01*
X181483000Y-115392222D01*
X181395994Y-114954815D01*
X181148223Y-114583999D01*
X180777407Y-114336228D01*
X180340000Y-114249222D01*
X179902593Y-114336228D01*
X179531777Y-114583999D01*
X179284006Y-114954815D01*
X179197000Y-115392222D01*
X130688473Y-115392222D01*
X130688473Y-114427000D01*
X130668991Y-114323461D01*
X130607799Y-114228366D01*
X130514432Y-114164571D01*
X130403600Y-114142127D01*
X128676400Y-114142127D01*
X128572861Y-114161609D01*
X128477766Y-114222801D01*
X128413971Y-114316168D01*
X128391527Y-114427000D01*
X127763327Y-114427000D01*
X127437407Y-114209228D01*
X127000000Y-114122222D01*
X126562593Y-114209228D01*
X126191777Y-114456999D01*
X125944006Y-114827815D01*
X125857000Y-115265222D01*
X125603000Y-115265222D01*
X125515994Y-114827815D01*
X125268223Y-114456999D01*
X124897407Y-114209228D01*
X124460000Y-114122222D01*
X124022593Y-114209228D01*
X123651777Y-114456999D01*
X123404006Y-114827815D01*
X123317000Y-115265222D01*
X123063000Y-115265222D01*
X122975994Y-114827815D01*
X122728223Y-114456999D01*
X122357407Y-114209228D01*
X121920000Y-114122222D01*
X121482593Y-114209228D01*
X121111777Y-114456999D01*
X120864006Y-114827815D01*
X120777000Y-115265222D01*
X110285863Y-115265222D01*
X110278895Y-115258242D01*
X109592979Y-114973425D01*
X108850280Y-114972776D01*
X108163868Y-115256396D01*
X107638242Y-115781105D01*
X107353425Y-116467021D01*
X107352776Y-117209720D01*
X106983600Y-117209720D01*
X106983600Y-110893729D01*
X115415538Y-110893729D01*
X115620148Y-111419716D01*
X116010470Y-111827363D01*
X116439618Y-112033737D01*
X116662200Y-111931950D01*
X116662200Y-110667800D01*
X115539809Y-110667800D01*
X115415538Y-110893729D01*
X106983600Y-110893729D01*
X106983600Y-110086271D01*
X115415538Y-110086271D01*
X115539809Y-110312200D01*
X116662200Y-110312200D01*
X116662200Y-109048050D01*
X117017800Y-109048050D01*
X117017800Y-110312200D01*
X117037800Y-110312200D01*
X117037800Y-110667800D01*
X117017800Y-110667800D01*
X117017800Y-111931950D01*
X117240382Y-112033737D01*
X117669530Y-111827363D01*
X118059852Y-111419716D01*
X118264462Y-110893729D01*
X118140192Y-110667802D01*
X118237005Y-110667802D01*
X118324006Y-111105185D01*
X118571777Y-111476001D01*
X118942593Y-111723772D01*
X119380000Y-111810778D01*
X119817407Y-111723772D01*
X120188223Y-111476001D01*
X120435994Y-111105185D01*
X120523000Y-110667778D01*
X120523000Y-110312222D01*
X120777000Y-110312222D01*
X120777000Y-110667778D01*
X120864006Y-111105185D01*
X121111777Y-111476001D01*
X121482593Y-111723772D01*
X121920000Y-111810778D01*
X122357407Y-111723772D01*
X122728223Y-111476001D01*
X122975994Y-111105185D01*
X123063000Y-110667778D01*
X123063000Y-110312222D01*
X123317000Y-110312222D01*
X123317000Y-110667778D01*
X123404006Y-111105185D01*
X123651777Y-111476001D01*
X124022593Y-111723772D01*
X124460000Y-111810778D01*
X124897407Y-111723772D01*
X125268223Y-111476001D01*
X125515994Y-111105185D01*
X125603000Y-110667778D01*
X125603000Y-110312222D01*
X125857000Y-110312222D01*
X125857000Y-110667778D01*
X125944006Y-111105185D01*
X126191777Y-111476001D01*
X126562593Y-111723772D01*
X127000000Y-111810778D01*
X127437407Y-111723772D01*
X127808223Y-111476001D01*
X128055994Y-111105185D01*
X128143000Y-110667778D01*
X128143000Y-110312222D01*
X128397000Y-110312222D01*
X128397000Y-110667778D01*
X128484006Y-111105185D01*
X128731777Y-111476001D01*
X129102593Y-111723772D01*
X129540000Y-111810778D01*
X129977407Y-111723772D01*
X130348223Y-111476001D01*
X130595994Y-111105185D01*
X130682995Y-110667802D01*
X130779808Y-110667802D01*
X130655538Y-110893729D01*
X130860148Y-111419716D01*
X131250470Y-111827363D01*
X131679618Y-112033737D01*
X131902200Y-111931950D01*
X131902200Y-110667800D01*
X131882200Y-110667800D01*
X131882200Y-110312200D01*
X131902200Y-110312200D01*
X131902200Y-109048050D01*
X132257800Y-109048050D01*
X132257800Y-110312200D01*
X132277800Y-110312200D01*
X132277800Y-110667800D01*
X132257800Y-110667800D01*
X132257800Y-111931950D01*
X132480382Y-112033737D01*
X132909530Y-111827363D01*
X133299852Y-111419716D01*
X133471527Y-110978394D01*
X133471527Y-111506000D01*
X133491009Y-111609539D01*
X133552201Y-111704634D01*
X133645568Y-111768429D01*
X133756400Y-111790873D01*
X135483600Y-111790873D01*
X135587139Y-111771391D01*
X135682234Y-111710199D01*
X135746029Y-111616832D01*
X135768473Y-111506000D01*
X135768473Y-110893729D01*
X173835538Y-110893729D01*
X174040148Y-111419716D01*
X174430470Y-111827363D01*
X174859618Y-112033737D01*
X175082200Y-111931950D01*
X175082200Y-110667800D01*
X173959809Y-110667800D01*
X173835538Y-110893729D01*
X135768473Y-110893729D01*
X135768473Y-110086271D01*
X173835538Y-110086271D01*
X173959809Y-110312200D01*
X175082200Y-110312200D01*
X175082200Y-109048050D01*
X175437800Y-109048050D01*
X175437800Y-110312200D01*
X175457800Y-110312200D01*
X175457800Y-110667800D01*
X175437800Y-110667800D01*
X175437800Y-111931950D01*
X175660382Y-112033737D01*
X176089530Y-111827363D01*
X176479852Y-111419716D01*
X176684462Y-110893729D01*
X176560192Y-110667802D01*
X176657005Y-110667802D01*
X176744006Y-111105185D01*
X176991777Y-111476001D01*
X177362593Y-111723772D01*
X177800000Y-111810778D01*
X178237407Y-111723772D01*
X178608223Y-111476001D01*
X178855994Y-111105185D01*
X178943000Y-110667778D01*
X178943000Y-110312222D01*
X179197000Y-110312222D01*
X179197000Y-110667778D01*
X179284006Y-111105185D01*
X179531777Y-111476001D01*
X179902593Y-111723772D01*
X180340000Y-111810778D01*
X180777407Y-111723772D01*
X181148223Y-111476001D01*
X181395994Y-111105185D01*
X181483000Y-110667778D01*
X181483000Y-110312222D01*
X181737000Y-110312222D01*
X181737000Y-110667778D01*
X181824006Y-111105185D01*
X182071777Y-111476001D01*
X182442593Y-111723772D01*
X182880000Y-111810778D01*
X183317407Y-111723772D01*
X183688223Y-111476001D01*
X183935994Y-111105185D01*
X184023000Y-110667778D01*
X184023000Y-110312222D01*
X184277000Y-110312222D01*
X184277000Y-110667778D01*
X184364006Y-111105185D01*
X184611777Y-111476001D01*
X184982593Y-111723772D01*
X185420000Y-111810778D01*
X185857407Y-111723772D01*
X186228223Y-111476001D01*
X186475994Y-111105185D01*
X186563000Y-110667778D01*
X186563000Y-110312222D01*
X186817000Y-110312222D01*
X186817000Y-110667778D01*
X186904006Y-111105185D01*
X187151777Y-111476001D01*
X187522593Y-111723772D01*
X187960000Y-111810778D01*
X188397407Y-111723772D01*
X188768223Y-111476001D01*
X189015994Y-111105185D01*
X189102995Y-110667802D01*
X189199808Y-110667802D01*
X189075538Y-110893729D01*
X189280148Y-111419716D01*
X189670470Y-111827363D01*
X190099618Y-112033737D01*
X190322200Y-111931950D01*
X190322200Y-110667800D01*
X190302200Y-110667800D01*
X190302200Y-110312200D01*
X190322200Y-110312200D01*
X190322200Y-109048050D01*
X190677800Y-109048050D01*
X190677800Y-110312200D01*
X190697800Y-110312200D01*
X190697800Y-110667800D01*
X190677800Y-110667800D01*
X190677800Y-111931950D01*
X190900382Y-112033737D01*
X191329530Y-111827363D01*
X191719852Y-111419716D01*
X191891527Y-110978394D01*
X191891527Y-111506000D01*
X191911009Y-111609539D01*
X191972201Y-111704634D01*
X192065568Y-111768429D01*
X192176400Y-111790873D01*
X193903600Y-111790873D01*
X194007139Y-111771391D01*
X194102234Y-111710199D01*
X194166029Y-111616832D01*
X194188473Y-111506000D01*
X194188473Y-109474000D01*
X194168991Y-109370461D01*
X194107799Y-109275366D01*
X194014432Y-109211571D01*
X193903600Y-109189127D01*
X192176400Y-109189127D01*
X192072861Y-109208609D01*
X191977766Y-109269801D01*
X191913971Y-109363168D01*
X191891527Y-109474000D01*
X191891527Y-110001606D01*
X191719852Y-109560284D01*
X191329530Y-109152637D01*
X190900382Y-108946263D01*
X190677800Y-109048050D01*
X190322200Y-109048050D01*
X190099618Y-108946263D01*
X189670470Y-109152637D01*
X189280148Y-109560284D01*
X189075538Y-110086271D01*
X189199808Y-110312198D01*
X189102995Y-110312198D01*
X189015994Y-109874815D01*
X188768223Y-109503999D01*
X188397407Y-109256228D01*
X187960000Y-109169222D01*
X187522593Y-109256228D01*
X187151777Y-109503999D01*
X186904006Y-109874815D01*
X186817000Y-110312222D01*
X186563000Y-110312222D01*
X186475994Y-109874815D01*
X186228223Y-109503999D01*
X185857407Y-109256228D01*
X185420000Y-109169222D01*
X184982593Y-109256228D01*
X184611777Y-109503999D01*
X184364006Y-109874815D01*
X184277000Y-110312222D01*
X184023000Y-110312222D01*
X183935994Y-109874815D01*
X183688223Y-109503999D01*
X183317407Y-109256228D01*
X182880000Y-109169222D01*
X182442593Y-109256228D01*
X182071777Y-109503999D01*
X181824006Y-109874815D01*
X181737000Y-110312222D01*
X181483000Y-110312222D01*
X181395994Y-109874815D01*
X181148223Y-109503999D01*
X180777407Y-109256228D01*
X180340000Y-109169222D01*
X179902593Y-109256228D01*
X179531777Y-109503999D01*
X179284006Y-109874815D01*
X179197000Y-110312222D01*
X178943000Y-110312222D01*
X178855994Y-109874815D01*
X178608223Y-109503999D01*
X178237407Y-109256228D01*
X177800000Y-109169222D01*
X177362593Y-109256228D01*
X176991777Y-109503999D01*
X176744006Y-109874815D01*
X176657005Y-110312198D01*
X176560192Y-110312198D01*
X176684462Y-110086271D01*
X176479852Y-109560284D01*
X176089530Y-109152637D01*
X175660382Y-108946263D01*
X175437800Y-109048050D01*
X175082200Y-109048050D01*
X174859618Y-108946263D01*
X174430470Y-109152637D01*
X174040148Y-109560284D01*
X173835538Y-110086271D01*
X135768473Y-110086271D01*
X135768473Y-109474000D01*
X135748991Y-109370461D01*
X135687799Y-109275366D01*
X135594432Y-109211571D01*
X135483600Y-109189127D01*
X133756400Y-109189127D01*
X133652861Y-109208609D01*
X133557766Y-109269801D01*
X133493971Y-109363168D01*
X133471527Y-109474000D01*
X133471527Y-110001606D01*
X133299852Y-109560284D01*
X132909530Y-109152637D01*
X132480382Y-108946263D01*
X132257800Y-109048050D01*
X131902200Y-109048050D01*
X131679618Y-108946263D01*
X131250470Y-109152637D01*
X130860148Y-109560284D01*
X130655538Y-110086271D01*
X130779808Y-110312198D01*
X130682995Y-110312198D01*
X130595994Y-109874815D01*
X130348223Y-109503999D01*
X129977407Y-109256228D01*
X129540000Y-109169222D01*
X129102593Y-109256228D01*
X128731777Y-109503999D01*
X128484006Y-109874815D01*
X128397000Y-110312222D01*
X128143000Y-110312222D01*
X128055994Y-109874815D01*
X127808223Y-109503999D01*
X127437407Y-109256228D01*
X127000000Y-109169222D01*
X126562593Y-109256228D01*
X126191777Y-109503999D01*
X125944006Y-109874815D01*
X125857000Y-110312222D01*
X125603000Y-110312222D01*
X125515994Y-109874815D01*
X125268223Y-109503999D01*
X124897407Y-109256228D01*
X124460000Y-109169222D01*
X124022593Y-109256228D01*
X123651777Y-109503999D01*
X123404006Y-109874815D01*
X123317000Y-110312222D01*
X123063000Y-110312222D01*
X122975994Y-109874815D01*
X122728223Y-109503999D01*
X122357407Y-109256228D01*
X121920000Y-109169222D01*
X121482593Y-109256228D01*
X121111777Y-109503999D01*
X120864006Y-109874815D01*
X120777000Y-110312222D01*
X120523000Y-110312222D01*
X120435994Y-109874815D01*
X120188223Y-109503999D01*
X119817407Y-109256228D01*
X119380000Y-109169222D01*
X118942593Y-109256228D01*
X118571777Y-109503999D01*
X118324006Y-109874815D01*
X118237005Y-110312198D01*
X118140192Y-110312198D01*
X118264462Y-110086271D01*
X118059852Y-109560284D01*
X117669530Y-109152637D01*
X117240382Y-108946263D01*
X117017800Y-109048050D01*
X116662200Y-109048050D01*
X116439618Y-108946263D01*
X116010470Y-109152637D01*
X115620148Y-109560284D01*
X115415538Y-110086271D01*
X106983600Y-110086271D01*
X106983600Y-104633000D01*
X132796127Y-104633000D01*
X132796127Y-105933000D01*
X132815609Y-106036539D01*
X132876801Y-106131634D01*
X132970168Y-106195429D01*
X133081000Y-106217873D01*
X134381000Y-106217873D01*
X134484539Y-106198391D01*
X134579634Y-106137199D01*
X134643429Y-106043832D01*
X134665873Y-105933000D01*
X134665873Y-104760000D01*
X190200127Y-104760000D01*
X190200127Y-106060000D01*
X190219609Y-106163539D01*
X190280801Y-106258634D01*
X190374168Y-106322429D01*
X190485000Y-106344873D01*
X191785000Y-106344873D01*
X191888539Y-106325391D01*
X191983634Y-106264199D01*
X192047429Y-106170832D01*
X192069873Y-106060000D01*
X192069873Y-104760000D01*
X192050391Y-104656461D01*
X191989199Y-104561366D01*
X191895832Y-104497571D01*
X191785000Y-104475127D01*
X190485000Y-104475127D01*
X190381461Y-104494609D01*
X190286366Y-104555801D01*
X190222571Y-104649168D01*
X190200127Y-104760000D01*
X134665873Y-104760000D01*
X134665873Y-104633000D01*
X134646391Y-104529461D01*
X134585199Y-104434366D01*
X134491832Y-104370571D01*
X134381000Y-104348127D01*
X133081000Y-104348127D01*
X132977461Y-104367609D01*
X132882366Y-104428801D01*
X132818571Y-104522168D01*
X132796127Y-104633000D01*
X106983600Y-104633000D01*
X106983600Y-103685146D01*
X133080301Y-103685146D01*
X133142607Y-103895345D01*
X133613072Y-104035842D01*
X134101490Y-103985605D01*
X134319393Y-103895345D01*
X134344054Y-103812146D01*
X190484301Y-103812146D01*
X190546607Y-104022345D01*
X191017072Y-104162842D01*
X191505490Y-104112605D01*
X191723393Y-104022345D01*
X191785699Y-103812146D01*
X191135000Y-103161447D01*
X190484301Y-103812146D01*
X134344054Y-103812146D01*
X134381699Y-103685146D01*
X133731000Y-103034447D01*
X133080301Y-103685146D01*
X106983600Y-103685146D01*
X106983600Y-102665072D01*
X132478158Y-102665072D01*
X132528395Y-103153490D01*
X132618655Y-103371393D01*
X132828854Y-103433699D01*
X133479553Y-102783000D01*
X133982447Y-102783000D01*
X134633146Y-103433699D01*
X134843345Y-103371393D01*
X134983842Y-102900928D01*
X134972646Y-102792072D01*
X189882158Y-102792072D01*
X189932395Y-103280490D01*
X190022655Y-103498393D01*
X190232854Y-103560699D01*
X190883553Y-102910000D01*
X191386447Y-102910000D01*
X192037146Y-103560699D01*
X192247345Y-103498393D01*
X192387842Y-103027928D01*
X192337605Y-102539510D01*
X192247345Y-102321607D01*
X192037146Y-102259301D01*
X191386447Y-102910000D01*
X190883553Y-102910000D01*
X190232854Y-102259301D01*
X190022655Y-102321607D01*
X189882158Y-102792072D01*
X134972646Y-102792072D01*
X134933605Y-102412510D01*
X134843345Y-102194607D01*
X134633146Y-102132301D01*
X133982447Y-102783000D01*
X133479553Y-102783000D01*
X132828854Y-102132301D01*
X132618655Y-102194607D01*
X132478158Y-102665072D01*
X106983600Y-102665072D01*
X106983600Y-101880854D01*
X133080301Y-101880854D01*
X133731000Y-102531553D01*
X134254699Y-102007854D01*
X190484301Y-102007854D01*
X191135000Y-102658553D01*
X191785699Y-102007854D01*
X191723393Y-101797655D01*
X191252928Y-101657158D01*
X190764510Y-101707395D01*
X190546607Y-101797655D01*
X190484301Y-102007854D01*
X134254699Y-102007854D01*
X134381699Y-101880854D01*
X134319393Y-101670655D01*
X133848928Y-101530158D01*
X133360510Y-101580395D01*
X133142607Y-101670655D01*
X133080301Y-101880854D01*
X106983600Y-101880854D01*
X106983600Y-97612222D01*
X115697000Y-97612222D01*
X115697000Y-97967778D01*
X115784006Y-98405185D01*
X116031777Y-98776001D01*
X116402593Y-99023772D01*
X116840000Y-99110778D01*
X117277407Y-99023772D01*
X117648223Y-98776001D01*
X117895994Y-98405185D01*
X117983000Y-97967778D01*
X117983000Y-97612222D01*
X118237000Y-97612222D01*
X118237000Y-97967778D01*
X118324006Y-98405185D01*
X118571777Y-98776001D01*
X118942593Y-99023772D01*
X119380000Y-99110778D01*
X119817407Y-99023772D01*
X120188223Y-98776001D01*
X120435994Y-98405185D01*
X120523000Y-97967778D01*
X120523000Y-97612222D01*
X120777000Y-97612222D01*
X120777000Y-97967778D01*
X120864006Y-98405185D01*
X121111777Y-98776001D01*
X121482593Y-99023772D01*
X121920000Y-99110778D01*
X122357407Y-99023772D01*
X122728223Y-98776001D01*
X122975994Y-98405185D01*
X123063000Y-97967778D01*
X123063000Y-97612222D01*
X123317000Y-97612222D01*
X123317000Y-97967778D01*
X123404006Y-98405185D01*
X123651777Y-98776001D01*
X124022593Y-99023772D01*
X124460000Y-99110778D01*
X124897407Y-99023772D01*
X125268223Y-98776001D01*
X125515994Y-98405185D01*
X125603000Y-97967778D01*
X125603000Y-97612222D01*
X125857000Y-97612222D01*
X125857000Y-97967778D01*
X125944006Y-98405185D01*
X126191777Y-98776001D01*
X126562593Y-99023772D01*
X127000000Y-99110778D01*
X127437407Y-99023772D01*
X127808223Y-98776001D01*
X128055994Y-98405185D01*
X128143000Y-97967778D01*
X128143000Y-97612222D01*
X128397000Y-97612222D01*
X128397000Y-97967778D01*
X128484006Y-98405185D01*
X128731777Y-98776001D01*
X129102593Y-99023772D01*
X129540000Y-99110778D01*
X129977407Y-99023772D01*
X130348223Y-98776001D01*
X130595994Y-98405185D01*
X130683000Y-97967778D01*
X130683000Y-97612222D01*
X130937000Y-97612222D01*
X130937000Y-97967778D01*
X131024006Y-98405185D01*
X131271777Y-98776001D01*
X131642593Y-99023772D01*
X132080000Y-99110778D01*
X132517407Y-99023772D01*
X132888223Y-98776001D01*
X133135994Y-98405185D01*
X133223000Y-97967778D01*
X133223000Y-97612222D01*
X133477000Y-97612222D01*
X133477000Y-97967778D01*
X133564006Y-98405185D01*
X133811777Y-98776001D01*
X134182593Y-99023772D01*
X134620000Y-99110778D01*
X135057407Y-99023772D01*
X135428223Y-98776001D01*
X135675994Y-98405185D01*
X135763000Y-97967778D01*
X135763000Y-97612222D01*
X174117000Y-97612222D01*
X174117000Y-97967778D01*
X174204006Y-98405185D01*
X174451777Y-98776001D01*
X174822593Y-99023772D01*
X175260000Y-99110778D01*
X175697407Y-99023772D01*
X176068223Y-98776001D01*
X176315994Y-98405185D01*
X176403000Y-97967778D01*
X176403000Y-97612222D01*
X176657000Y-97612222D01*
X176657000Y-97967778D01*
X176744006Y-98405185D01*
X176991777Y-98776001D01*
X177362593Y-99023772D01*
X177800000Y-99110778D01*
X178237407Y-99023772D01*
X178608223Y-98776001D01*
X178855994Y-98405185D01*
X178943000Y-97967778D01*
X178943000Y-97612222D01*
X179197000Y-97612222D01*
X179197000Y-97967778D01*
X179284006Y-98405185D01*
X179531777Y-98776001D01*
X179902593Y-99023772D01*
X180340000Y-99110778D01*
X180777407Y-99023772D01*
X181148223Y-98776001D01*
X181395994Y-98405185D01*
X181483000Y-97967778D01*
X181483000Y-97612222D01*
X181737000Y-97612222D01*
X181737000Y-97967778D01*
X181824006Y-98405185D01*
X182071777Y-98776001D01*
X182442593Y-99023772D01*
X182880000Y-99110778D01*
X183317407Y-99023772D01*
X183688223Y-98776001D01*
X183935994Y-98405185D01*
X184023000Y-97967778D01*
X184023000Y-97612222D01*
X184277000Y-97612222D01*
X184277000Y-97967778D01*
X184364006Y-98405185D01*
X184611777Y-98776001D01*
X184982593Y-99023772D01*
X185420000Y-99110778D01*
X185857407Y-99023772D01*
X186228223Y-98776001D01*
X186475994Y-98405185D01*
X186563000Y-97967778D01*
X186563000Y-97612222D01*
X186817000Y-97612222D01*
X186817000Y-97967778D01*
X186904006Y-98405185D01*
X187151777Y-98776001D01*
X187522593Y-99023772D01*
X187960000Y-99110778D01*
X188397407Y-99023772D01*
X188768223Y-98776001D01*
X189015994Y-98405185D01*
X189103000Y-97967778D01*
X189103000Y-97612222D01*
X189357000Y-97612222D01*
X189357000Y-97967778D01*
X189444006Y-98405185D01*
X189691777Y-98776001D01*
X190062593Y-99023772D01*
X190500000Y-99110778D01*
X190937407Y-99023772D01*
X191308223Y-98776001D01*
X191555994Y-98405185D01*
X191643000Y-97967778D01*
X191643000Y-97612222D01*
X191897000Y-97612222D01*
X191897000Y-97967778D01*
X191984006Y-98405185D01*
X192231777Y-98776001D01*
X192602593Y-99023772D01*
X193040000Y-99110778D01*
X193477407Y-99023772D01*
X193848223Y-98776001D01*
X194095994Y-98405185D01*
X194183000Y-97967778D01*
X194183000Y-97612222D01*
X194095994Y-97174815D01*
X193848223Y-96803999D01*
X193477407Y-96556228D01*
X193040000Y-96469222D01*
X192602593Y-96556228D01*
X192231777Y-96803999D01*
X191984006Y-97174815D01*
X191897000Y-97612222D01*
X191643000Y-97612222D01*
X191555994Y-97174815D01*
X191308223Y-96803999D01*
X190937407Y-96556228D01*
X190881000Y-96545008D01*
X190881000Y-95094873D01*
X191150000Y-95094873D01*
X191253539Y-95075391D01*
X191348634Y-95014199D01*
X191412429Y-94920832D01*
X191434873Y-94810000D01*
X191434873Y-93310000D01*
X191415391Y-93206461D01*
X191354199Y-93111366D01*
X191260832Y-93047571D01*
X191150000Y-93025127D01*
X189850000Y-93025127D01*
X189746461Y-93044609D01*
X189651366Y-93105801D01*
X189587571Y-93199168D01*
X189565127Y-93310000D01*
X189565127Y-94810000D01*
X189584609Y-94913539D01*
X189645801Y-95008634D01*
X189739168Y-95072429D01*
X189850000Y-95094873D01*
X190119000Y-95094873D01*
X190119000Y-96545008D01*
X190062593Y-96556228D01*
X189691777Y-96803999D01*
X189444006Y-97174815D01*
X189357000Y-97612222D01*
X189103000Y-97612222D01*
X189015994Y-97174815D01*
X188768223Y-96803999D01*
X188397407Y-96556228D01*
X188341000Y-96545008D01*
X188341000Y-95094873D01*
X188610000Y-95094873D01*
X188713539Y-95075391D01*
X188808634Y-95014199D01*
X188872429Y-94920832D01*
X188894873Y-94810000D01*
X188894873Y-93310000D01*
X188875391Y-93206461D01*
X188814199Y-93111366D01*
X188720832Y-93047571D01*
X188610000Y-93025127D01*
X187310000Y-93025127D01*
X187206461Y-93044609D01*
X187111366Y-93105801D01*
X187047571Y-93199168D01*
X187025127Y-93310000D01*
X187025127Y-94810000D01*
X187044609Y-94913539D01*
X187105801Y-95008634D01*
X187199168Y-95072429D01*
X187310000Y-95094873D01*
X187579000Y-95094873D01*
X187579000Y-96545008D01*
X187522593Y-96556228D01*
X187151777Y-96803999D01*
X186904006Y-97174815D01*
X186817000Y-97612222D01*
X186563000Y-97612222D01*
X186475994Y-97174815D01*
X186228223Y-96803999D01*
X185857407Y-96556228D01*
X185801000Y-96545008D01*
X185801000Y-95094873D01*
X186070000Y-95094873D01*
X186173539Y-95075391D01*
X186268634Y-95014199D01*
X186332429Y-94920832D01*
X186354873Y-94810000D01*
X186354873Y-93310000D01*
X186335391Y-93206461D01*
X186274199Y-93111366D01*
X186180832Y-93047571D01*
X186070000Y-93025127D01*
X184770000Y-93025127D01*
X184666461Y-93044609D01*
X184571366Y-93105801D01*
X184507571Y-93199168D01*
X184485127Y-93310000D01*
X184485127Y-94810000D01*
X184504609Y-94913539D01*
X184565801Y-95008634D01*
X184659168Y-95072429D01*
X184770000Y-95094873D01*
X185039000Y-95094873D01*
X185039000Y-96545008D01*
X184982593Y-96556228D01*
X184611777Y-96803999D01*
X184364006Y-97174815D01*
X184277000Y-97612222D01*
X184023000Y-97612222D01*
X183935994Y-97174815D01*
X183688223Y-96803999D01*
X183317407Y-96556228D01*
X183311800Y-96555113D01*
X183311800Y-93269858D01*
X184485127Y-92096530D01*
X184485127Y-92110000D01*
X184504609Y-92213539D01*
X184565801Y-92308634D01*
X184659168Y-92372429D01*
X184770000Y-92394873D01*
X186070000Y-92394873D01*
X186173539Y-92375391D01*
X186268634Y-92314199D01*
X186332429Y-92220832D01*
X186354873Y-92110000D01*
X186354873Y-91791800D01*
X187025127Y-91791800D01*
X187025127Y-92110000D01*
X187044609Y-92213539D01*
X187105801Y-92308634D01*
X187199168Y-92372429D01*
X187310000Y-92394873D01*
X188610000Y-92394873D01*
X188713539Y-92375391D01*
X188808634Y-92314199D01*
X188872429Y-92220832D01*
X188894873Y-92110000D01*
X188894873Y-91791800D01*
X189565127Y-91791800D01*
X189565127Y-92110000D01*
X189584609Y-92213539D01*
X189645801Y-92308634D01*
X189739168Y-92372429D01*
X189850000Y-92394873D01*
X191150000Y-92394873D01*
X191253539Y-92375391D01*
X191348634Y-92314199D01*
X191412429Y-92220832D01*
X191434873Y-92110000D01*
X191434873Y-91744800D01*
X192906366Y-91744800D01*
X192965368Y-91803905D01*
X193178245Y-91892299D01*
X193408744Y-91892500D01*
X193621775Y-91804478D01*
X193784905Y-91641632D01*
X193873299Y-91428755D01*
X193873500Y-91198256D01*
X193785478Y-90985225D01*
X193622632Y-90822095D01*
X193409755Y-90733701D01*
X193179256Y-90733500D01*
X192966225Y-90821522D01*
X192906443Y-90881200D01*
X191434873Y-90881200D01*
X191434873Y-90610000D01*
X191415391Y-90506461D01*
X191354199Y-90411366D01*
X191260832Y-90347571D01*
X191150000Y-90325127D01*
X189850000Y-90325127D01*
X189746461Y-90344609D01*
X189651366Y-90405801D01*
X189587571Y-90499168D01*
X189565127Y-90610000D01*
X189565127Y-90928200D01*
X188894873Y-90928200D01*
X188894873Y-90610000D01*
X188875391Y-90506461D01*
X188814199Y-90411366D01*
X188720832Y-90347571D01*
X188610000Y-90325127D01*
X187310000Y-90325127D01*
X187206461Y-90344609D01*
X187111366Y-90405801D01*
X187047571Y-90499168D01*
X187025127Y-90610000D01*
X187025127Y-90928200D01*
X186354873Y-90928200D01*
X186354873Y-90610000D01*
X186335391Y-90506461D01*
X186274199Y-90411366D01*
X186180832Y-90347571D01*
X186070000Y-90325127D01*
X184770000Y-90325127D01*
X184666461Y-90344609D01*
X184571366Y-90405801D01*
X184507571Y-90499168D01*
X184485127Y-90610000D01*
X184485127Y-90953238D01*
X184473173Y-90955615D01*
X184445757Y-90961069D01*
X184305671Y-91054671D01*
X184305669Y-91054674D01*
X182574671Y-92785671D01*
X182481069Y-92925757D01*
X182448200Y-93091000D01*
X182448200Y-96555113D01*
X182442593Y-96556228D01*
X182071777Y-96803999D01*
X181824006Y-97174815D01*
X181737000Y-97612222D01*
X181483000Y-97612222D01*
X181395994Y-97174815D01*
X181148223Y-96803999D01*
X180777407Y-96556228D01*
X180340000Y-96469222D01*
X179902593Y-96556228D01*
X179531777Y-96803999D01*
X179284006Y-97174815D01*
X179197000Y-97612222D01*
X178943000Y-97612222D01*
X178855994Y-97174815D01*
X178608223Y-96803999D01*
X178237407Y-96556228D01*
X177800000Y-96469222D01*
X177362593Y-96556228D01*
X176991777Y-96803999D01*
X176744006Y-97174815D01*
X176657000Y-97612222D01*
X176403000Y-97612222D01*
X176315994Y-97174815D01*
X176068223Y-96803999D01*
X175697407Y-96556228D01*
X175260000Y-96469222D01*
X174822593Y-96556228D01*
X174451777Y-96803999D01*
X174204006Y-97174815D01*
X174117000Y-97612222D01*
X135763000Y-97612222D01*
X135675994Y-97174815D01*
X135428223Y-96803999D01*
X135057407Y-96556228D01*
X134620000Y-96469222D01*
X134182593Y-96556228D01*
X133811777Y-96803999D01*
X133564006Y-97174815D01*
X133477000Y-97612222D01*
X133223000Y-97612222D01*
X133135994Y-97174815D01*
X132888223Y-96803999D01*
X132517407Y-96556228D01*
X132461000Y-96545008D01*
X132461000Y-95094873D01*
X132730000Y-95094873D01*
X132833539Y-95075391D01*
X132928634Y-95014199D01*
X132992429Y-94920832D01*
X133014873Y-94810000D01*
X133014873Y-93310000D01*
X132995391Y-93206461D01*
X132934199Y-93111366D01*
X132840832Y-93047571D01*
X132730000Y-93025127D01*
X131430000Y-93025127D01*
X131326461Y-93044609D01*
X131231366Y-93105801D01*
X131167571Y-93199168D01*
X131145127Y-93310000D01*
X131145127Y-94810000D01*
X131164609Y-94913539D01*
X131225801Y-95008634D01*
X131319168Y-95072429D01*
X131430000Y-95094873D01*
X131699000Y-95094873D01*
X131699000Y-96545008D01*
X131642593Y-96556228D01*
X131271777Y-96803999D01*
X131024006Y-97174815D01*
X130937000Y-97612222D01*
X130683000Y-97612222D01*
X130595994Y-97174815D01*
X130348223Y-96803999D01*
X129977407Y-96556228D01*
X129921000Y-96545008D01*
X129921000Y-95094873D01*
X130190000Y-95094873D01*
X130293539Y-95075391D01*
X130388634Y-95014199D01*
X130452429Y-94920832D01*
X130474873Y-94810000D01*
X130474873Y-93310000D01*
X130455391Y-93206461D01*
X130394199Y-93111366D01*
X130300832Y-93047571D01*
X130190000Y-93025127D01*
X128890000Y-93025127D01*
X128786461Y-93044609D01*
X128691366Y-93105801D01*
X128627571Y-93199168D01*
X128605127Y-93310000D01*
X128605127Y-94810000D01*
X128624609Y-94913539D01*
X128685801Y-95008634D01*
X128779168Y-95072429D01*
X128890000Y-95094873D01*
X129159000Y-95094873D01*
X129159000Y-96545008D01*
X129102593Y-96556228D01*
X128731777Y-96803999D01*
X128484006Y-97174815D01*
X128397000Y-97612222D01*
X128143000Y-97612222D01*
X128055994Y-97174815D01*
X127808223Y-96803999D01*
X127437407Y-96556228D01*
X127381000Y-96545008D01*
X127381000Y-95094873D01*
X127650000Y-95094873D01*
X127753539Y-95075391D01*
X127848634Y-95014199D01*
X127912429Y-94920832D01*
X127934873Y-94810000D01*
X127934873Y-93310000D01*
X127915391Y-93206461D01*
X127854199Y-93111366D01*
X127760832Y-93047571D01*
X127650000Y-93025127D01*
X126350000Y-93025127D01*
X126246461Y-93044609D01*
X126151366Y-93105801D01*
X126087571Y-93199168D01*
X126065127Y-93310000D01*
X126065127Y-94810000D01*
X126084609Y-94913539D01*
X126145801Y-95008634D01*
X126239168Y-95072429D01*
X126350000Y-95094873D01*
X126619000Y-95094873D01*
X126619000Y-96545008D01*
X126562593Y-96556228D01*
X126191777Y-96803999D01*
X125944006Y-97174815D01*
X125857000Y-97612222D01*
X125603000Y-97612222D01*
X125515994Y-97174815D01*
X125268223Y-96803999D01*
X124897407Y-96556228D01*
X124891800Y-96555113D01*
X124891800Y-92634858D01*
X124914436Y-92612222D01*
X150819000Y-92612222D01*
X150819000Y-92967778D01*
X150906006Y-93405185D01*
X151153777Y-93776001D01*
X151524593Y-94023772D01*
X151962000Y-94110778D01*
X152399407Y-94023772D01*
X152770223Y-93776001D01*
X153017994Y-93405185D01*
X153104995Y-92967802D01*
X153201808Y-92967802D01*
X153077538Y-93193729D01*
X153282148Y-93719716D01*
X153672470Y-94127363D01*
X154101618Y-94333737D01*
X154324200Y-94231950D01*
X154324200Y-92967800D01*
X154304200Y-92967800D01*
X154304200Y-92612200D01*
X154324200Y-92612200D01*
X154324200Y-91348050D01*
X154679800Y-91348050D01*
X154679800Y-92612200D01*
X154699800Y-92612200D01*
X154699800Y-92967800D01*
X154679800Y-92967800D01*
X154679800Y-94231950D01*
X154902382Y-94333737D01*
X155331530Y-94127363D01*
X155721852Y-93719716D01*
X155926462Y-93193729D01*
X155802192Y-92967802D01*
X155899005Y-92967802D01*
X155986006Y-93405185D01*
X156233777Y-93776001D01*
X156604593Y-94023772D01*
X157042000Y-94110778D01*
X157479407Y-94023772D01*
X157850223Y-93776001D01*
X158097994Y-93405185D01*
X158185000Y-92967778D01*
X158185000Y-92612222D01*
X158439000Y-92612222D01*
X158439000Y-92967778D01*
X158526006Y-93405185D01*
X158773777Y-93776001D01*
X159144593Y-94023772D01*
X159582000Y-94110778D01*
X160019407Y-94023772D01*
X160390223Y-93776001D01*
X160637994Y-93405185D01*
X160725000Y-92967778D01*
X160725000Y-92612222D01*
X160637994Y-92174815D01*
X160390223Y-91803999D01*
X160345327Y-91774000D01*
X160973527Y-91774000D01*
X160973527Y-93806000D01*
X160993009Y-93909539D01*
X161054201Y-94004634D01*
X161147568Y-94068429D01*
X161258400Y-94090873D01*
X162985600Y-94090873D01*
X163089139Y-94071391D01*
X163184234Y-94010199D01*
X163248029Y-93916832D01*
X163270473Y-93806000D01*
X163270473Y-91774000D01*
X163250991Y-91670461D01*
X163189799Y-91575366D01*
X163096432Y-91511571D01*
X162985600Y-91489127D01*
X161258400Y-91489127D01*
X161154861Y-91508609D01*
X161059766Y-91569801D01*
X160995971Y-91663168D01*
X160973527Y-91774000D01*
X160345327Y-91774000D01*
X160019407Y-91556228D01*
X159582000Y-91469222D01*
X159144593Y-91556228D01*
X158773777Y-91803999D01*
X158526006Y-92174815D01*
X158439000Y-92612222D01*
X158185000Y-92612222D01*
X158097994Y-92174815D01*
X157850223Y-91803999D01*
X157479407Y-91556228D01*
X157042000Y-91469222D01*
X156604593Y-91556228D01*
X156233777Y-91803999D01*
X155986006Y-92174815D01*
X155899005Y-92612198D01*
X155802192Y-92612198D01*
X155926462Y-92386271D01*
X155721852Y-91860284D01*
X155331530Y-91452637D01*
X154902382Y-91246263D01*
X154679800Y-91348050D01*
X154324200Y-91348050D01*
X154101618Y-91246263D01*
X153672470Y-91452637D01*
X153282148Y-91860284D01*
X153077538Y-92386271D01*
X153201808Y-92612198D01*
X153104995Y-92612198D01*
X153017994Y-92174815D01*
X152770223Y-91803999D01*
X152399407Y-91556228D01*
X151962000Y-91469222D01*
X151524593Y-91556228D01*
X151153777Y-91803999D01*
X150906006Y-92174815D01*
X150819000Y-92612222D01*
X124914436Y-92612222D01*
X125734858Y-91791800D01*
X126065127Y-91791800D01*
X126065127Y-92110000D01*
X126084609Y-92213539D01*
X126145801Y-92308634D01*
X126239168Y-92372429D01*
X126350000Y-92394873D01*
X127650000Y-92394873D01*
X127753539Y-92375391D01*
X127848634Y-92314199D01*
X127912429Y-92220832D01*
X127934873Y-92110000D01*
X127934873Y-91791800D01*
X128605127Y-91791800D01*
X128605127Y-92110000D01*
X128624609Y-92213539D01*
X128685801Y-92308634D01*
X128779168Y-92372429D01*
X128890000Y-92394873D01*
X130190000Y-92394873D01*
X130293539Y-92375391D01*
X130388634Y-92314199D01*
X130452429Y-92220832D01*
X130474873Y-92110000D01*
X130474873Y-91791800D01*
X131145127Y-91791800D01*
X131145127Y-92110000D01*
X131164609Y-92213539D01*
X131225801Y-92308634D01*
X131319168Y-92372429D01*
X131430000Y-92394873D01*
X132730000Y-92394873D01*
X132833539Y-92375391D01*
X132928634Y-92314199D01*
X132992429Y-92220832D01*
X133014873Y-92110000D01*
X133014873Y-91791800D01*
X134787284Y-91791800D01*
X134799368Y-91803905D01*
X135012245Y-91892299D01*
X135242744Y-91892500D01*
X135455775Y-91804478D01*
X135618905Y-91641632D01*
X135707299Y-91428755D01*
X135707500Y-91198256D01*
X135619478Y-90985225D01*
X135456632Y-90822095D01*
X135243755Y-90733701D01*
X135013256Y-90733500D01*
X134800225Y-90821522D01*
X134693361Y-90928200D01*
X133014873Y-90928200D01*
X133014873Y-90610000D01*
X132995391Y-90506461D01*
X132934199Y-90411366D01*
X132840832Y-90347571D01*
X132730000Y-90325127D01*
X131430000Y-90325127D01*
X131326461Y-90344609D01*
X131231366Y-90405801D01*
X131167571Y-90499168D01*
X131145127Y-90610000D01*
X131145127Y-90928200D01*
X130474873Y-90928200D01*
X130474873Y-90610000D01*
X130455391Y-90506461D01*
X130394199Y-90411366D01*
X130300832Y-90347571D01*
X130190000Y-90325127D01*
X128890000Y-90325127D01*
X128786461Y-90344609D01*
X128691366Y-90405801D01*
X128627571Y-90499168D01*
X128605127Y-90610000D01*
X128605127Y-90928200D01*
X127934873Y-90928200D01*
X127934873Y-90610000D01*
X127915391Y-90506461D01*
X127854199Y-90411366D01*
X127760832Y-90347571D01*
X127650000Y-90325127D01*
X126350000Y-90325127D01*
X126246461Y-90344609D01*
X126151366Y-90405801D01*
X126087571Y-90499168D01*
X126065127Y-90610000D01*
X126065127Y-90928200D01*
X125556000Y-90928200D01*
X125390757Y-90961069D01*
X125321012Y-91007671D01*
X125250671Y-91054671D01*
X124154671Y-92150671D01*
X124061069Y-92290757D01*
X124028200Y-92456000D01*
X124028200Y-96555113D01*
X124022593Y-96556228D01*
X123651777Y-96803999D01*
X123404006Y-97174815D01*
X123317000Y-97612222D01*
X123063000Y-97612222D01*
X122975994Y-97174815D01*
X122728223Y-96803999D01*
X122357407Y-96556228D01*
X121920000Y-96469222D01*
X121482593Y-96556228D01*
X121111777Y-96803999D01*
X120864006Y-97174815D01*
X120777000Y-97612222D01*
X120523000Y-97612222D01*
X120435994Y-97174815D01*
X120188223Y-96803999D01*
X119817407Y-96556228D01*
X119380000Y-96469222D01*
X118942593Y-96556228D01*
X118571777Y-96803999D01*
X118324006Y-97174815D01*
X118237000Y-97612222D01*
X117983000Y-97612222D01*
X117895994Y-97174815D01*
X117648223Y-96803999D01*
X117277407Y-96556228D01*
X116840000Y-96469222D01*
X116402593Y-96556228D01*
X116031777Y-96803999D01*
X115784006Y-97174815D01*
X115697000Y-97612222D01*
X106983600Y-97612222D01*
X106983600Y-83807744D01*
X116260500Y-83807744D01*
X116348522Y-84020775D01*
X116511368Y-84183905D01*
X116724245Y-84272299D01*
X116954744Y-84272500D01*
X117167775Y-84184478D01*
X117278446Y-84074000D01*
X117983000Y-84074000D01*
X118128803Y-84044998D01*
X118252408Y-83962408D01*
X119360816Y-82854000D01*
X175321527Y-82854000D01*
X175321527Y-84886000D01*
X175341009Y-84989539D01*
X175402201Y-85084634D01*
X175495568Y-85148429D01*
X175606400Y-85170873D01*
X177333600Y-85170873D01*
X177437139Y-85151391D01*
X177532234Y-85090199D01*
X177596029Y-84996832D01*
X177618473Y-84886000D01*
X177618473Y-84358394D01*
X177790148Y-84799716D01*
X178180470Y-85207363D01*
X178609618Y-85413737D01*
X178832200Y-85311950D01*
X178832200Y-84047800D01*
X178812200Y-84047800D01*
X178812200Y-83692200D01*
X178832200Y-83692200D01*
X178832200Y-82428050D01*
X179187800Y-82428050D01*
X179187800Y-83692200D01*
X179207800Y-83692200D01*
X179207800Y-84047800D01*
X179187800Y-84047800D01*
X179187800Y-85311950D01*
X179410382Y-85413737D01*
X179839530Y-85207363D01*
X180229852Y-84799716D01*
X180434462Y-84273729D01*
X180310192Y-84047802D01*
X180407005Y-84047802D01*
X180494006Y-84485185D01*
X180741777Y-84856001D01*
X181112593Y-85103772D01*
X181550000Y-85190778D01*
X181987407Y-85103772D01*
X182358223Y-84856001D01*
X182605994Y-84485185D01*
X182693000Y-84047778D01*
X182693000Y-83692222D01*
X182947000Y-83692222D01*
X182947000Y-84047778D01*
X183034006Y-84485185D01*
X183281777Y-84856001D01*
X183652593Y-85103772D01*
X184090000Y-85190778D01*
X184527407Y-85103772D01*
X184898223Y-84856001D01*
X185145994Y-84485185D01*
X185233000Y-84047778D01*
X185233000Y-83692222D01*
X185487000Y-83692222D01*
X185487000Y-84047778D01*
X185574006Y-84485185D01*
X185821777Y-84856001D01*
X186192593Y-85103772D01*
X186630000Y-85190778D01*
X187067407Y-85103772D01*
X187438223Y-84856001D01*
X187685994Y-84485185D01*
X187773000Y-84047778D01*
X187773000Y-83692222D01*
X188027000Y-83692222D01*
X188027000Y-84047778D01*
X188114006Y-84485185D01*
X188361777Y-84856001D01*
X188732593Y-85103772D01*
X189170000Y-85190778D01*
X189607407Y-85103772D01*
X189978223Y-84856001D01*
X190225994Y-84485185D01*
X190313000Y-84047778D01*
X190313000Y-83692222D01*
X190567000Y-83692222D01*
X190567000Y-84047778D01*
X190654006Y-84485185D01*
X190901777Y-84856001D01*
X191272593Y-85103772D01*
X191710000Y-85190778D01*
X192147407Y-85103772D01*
X192518223Y-84856001D01*
X192765994Y-84485185D01*
X192853000Y-84047778D01*
X192853000Y-83692222D01*
X193107000Y-83692222D01*
X193107000Y-84047778D01*
X193194006Y-84485185D01*
X193441777Y-84856001D01*
X193812593Y-85103772D01*
X194250000Y-85190778D01*
X194687407Y-85103772D01*
X195058223Y-84856001D01*
X195305994Y-84485185D01*
X195393000Y-84047778D01*
X195393000Y-83692222D01*
X195305994Y-83254815D01*
X195058223Y-82883999D01*
X194687407Y-82636228D01*
X194250000Y-82549222D01*
X193812593Y-82636228D01*
X193441777Y-82883999D01*
X193194006Y-83254815D01*
X193107000Y-83692222D01*
X192853000Y-83692222D01*
X192765994Y-83254815D01*
X192518223Y-82883999D01*
X192147407Y-82636228D01*
X191710000Y-82549222D01*
X191272593Y-82636228D01*
X190901777Y-82883999D01*
X190654006Y-83254815D01*
X190567000Y-83692222D01*
X190313000Y-83692222D01*
X190225994Y-83254815D01*
X189978223Y-82883999D01*
X189607407Y-82636228D01*
X189170000Y-82549222D01*
X188732593Y-82636228D01*
X188361777Y-82883999D01*
X188114006Y-83254815D01*
X188027000Y-83692222D01*
X187773000Y-83692222D01*
X187685994Y-83254815D01*
X187438223Y-82883999D01*
X187067407Y-82636228D01*
X186630000Y-82549222D01*
X186192593Y-82636228D01*
X185821777Y-82883999D01*
X185574006Y-83254815D01*
X185487000Y-83692222D01*
X185233000Y-83692222D01*
X185145994Y-83254815D01*
X184898223Y-82883999D01*
X184527407Y-82636228D01*
X184090000Y-82549222D01*
X183652593Y-82636228D01*
X183281777Y-82883999D01*
X183034006Y-83254815D01*
X182947000Y-83692222D01*
X182693000Y-83692222D01*
X182605994Y-83254815D01*
X182358223Y-82883999D01*
X181987407Y-82636228D01*
X181550000Y-82549222D01*
X181112593Y-82636228D01*
X180741777Y-82883999D01*
X180494006Y-83254815D01*
X180407005Y-83692198D01*
X180310192Y-83692198D01*
X180434462Y-83466271D01*
X180229852Y-82940284D01*
X179839530Y-82532637D01*
X179410382Y-82326263D01*
X179187800Y-82428050D01*
X178832200Y-82428050D01*
X178609618Y-82326263D01*
X178180470Y-82532637D01*
X177790148Y-82940284D01*
X177618473Y-83381606D01*
X177618473Y-82854000D01*
X177598991Y-82750461D01*
X177537799Y-82655366D01*
X177444432Y-82591571D01*
X177333600Y-82569127D01*
X175606400Y-82569127D01*
X175502861Y-82588609D01*
X175407766Y-82649801D01*
X175343971Y-82743168D01*
X175321527Y-82854000D01*
X119360816Y-82854000D01*
X120609451Y-81605365D01*
X120764744Y-81605500D01*
X120977775Y-81517478D01*
X121140905Y-81354632D01*
X121229299Y-81141755D01*
X121229500Y-80911256D01*
X121141478Y-80698225D01*
X120978632Y-80535095D01*
X120765755Y-80446701D01*
X120535256Y-80446500D01*
X120322225Y-80534522D01*
X120159095Y-80697368D01*
X120070701Y-80910245D01*
X120070565Y-81066620D01*
X117825184Y-83312000D01*
X117278346Y-83312000D01*
X117168632Y-83202095D01*
X116955755Y-83113701D01*
X116725256Y-83113500D01*
X116512225Y-83201522D01*
X116349095Y-83364368D01*
X116260701Y-83577245D01*
X116260500Y-83807744D01*
X106983600Y-83807744D01*
X106983600Y-75544568D01*
X142076396Y-75544568D01*
X142255570Y-75978204D01*
X142587051Y-76310264D01*
X143020374Y-76490195D01*
X143489568Y-76490604D01*
X143923204Y-76311430D01*
X144255264Y-75979949D01*
X144435195Y-75546626D01*
X144435196Y-75544568D01*
X157316396Y-75544568D01*
X157495570Y-75978204D01*
X157827051Y-76310264D01*
X158260374Y-76490195D01*
X158729568Y-76490604D01*
X159163204Y-76311430D01*
X159495264Y-75979949D01*
X159675195Y-75546626D01*
X159675604Y-75077432D01*
X159496430Y-74643796D01*
X159164949Y-74311736D01*
X158731626Y-74131805D01*
X158262432Y-74131396D01*
X157828796Y-74310570D01*
X157496736Y-74642051D01*
X157316805Y-75075374D01*
X157316396Y-75544568D01*
X144435196Y-75544568D01*
X144435604Y-75077432D01*
X144256430Y-74643796D01*
X143924949Y-74311736D01*
X143491626Y-74131805D01*
X143022432Y-74131396D01*
X142588796Y-74310570D01*
X142256736Y-74642051D01*
X142076805Y-75075374D01*
X142076396Y-75544568D01*
X106983600Y-75544568D01*
X106983600Y-73004568D01*
X142076396Y-73004568D01*
X142255570Y-73438204D01*
X142587051Y-73770264D01*
X143020374Y-73950195D01*
X143489568Y-73950604D01*
X143923204Y-73771430D01*
X144255264Y-73439949D01*
X144435195Y-73006626D01*
X144435196Y-73004568D01*
X157316396Y-73004568D01*
X157495570Y-73438204D01*
X157827051Y-73770264D01*
X158260374Y-73950195D01*
X158729568Y-73950604D01*
X159163204Y-73771430D01*
X159495264Y-73439949D01*
X159675195Y-73006626D01*
X159675604Y-72537432D01*
X159496430Y-72103796D01*
X159164949Y-71771736D01*
X158731626Y-71591805D01*
X158262432Y-71591396D01*
X157828796Y-71770570D01*
X157496736Y-72102051D01*
X157316805Y-72535374D01*
X157316396Y-73004568D01*
X144435196Y-73004568D01*
X144435604Y-72537432D01*
X144256430Y-72103796D01*
X143924949Y-71771736D01*
X143491626Y-71591805D01*
X143022432Y-71591396D01*
X142588796Y-71770570D01*
X142256736Y-72102051D01*
X142076805Y-72535374D01*
X142076396Y-73004568D01*
X106983600Y-73004568D01*
X106983600Y-70464568D01*
X142076396Y-70464568D01*
X142255570Y-70898204D01*
X142587051Y-71230264D01*
X143020374Y-71410195D01*
X143489568Y-71410604D01*
X143923204Y-71231430D01*
X144255264Y-70899949D01*
X144435195Y-70466626D01*
X144435196Y-70464568D01*
X157316396Y-70464568D01*
X157495570Y-70898204D01*
X157827051Y-71230264D01*
X158260374Y-71410195D01*
X158729568Y-71410604D01*
X159163204Y-71231430D01*
X159495264Y-70899949D01*
X159675195Y-70466626D01*
X159675300Y-70345744D01*
X169346500Y-70345744D01*
X169434522Y-70558775D01*
X169597368Y-70721905D01*
X169810245Y-70810299D01*
X169966620Y-70810435D01*
X171053590Y-71897405D01*
X171053592Y-71897408D01*
X171127688Y-71946917D01*
X171177197Y-71979998D01*
X171323000Y-72009000D01*
X172662654Y-72009000D01*
X172772368Y-72118905D01*
X172985245Y-72207299D01*
X173215744Y-72207500D01*
X173428775Y-72119478D01*
X173591905Y-71956632D01*
X173680299Y-71743755D01*
X173680500Y-71513256D01*
X173592478Y-71300225D01*
X173429632Y-71137095D01*
X173216755Y-71048701D01*
X172986256Y-71048500D01*
X172773225Y-71136522D01*
X172662554Y-71247000D01*
X171480815Y-71247000D01*
X170505365Y-70271549D01*
X170505500Y-70116256D01*
X170442897Y-69964744D01*
X172648500Y-69964744D01*
X172736522Y-70177775D01*
X172899368Y-70340905D01*
X173112245Y-70429299D01*
X173342744Y-70429500D01*
X173555775Y-70341478D01*
X173718905Y-70178632D01*
X173807299Y-69965755D01*
X173807435Y-69809381D01*
X176291405Y-67325410D01*
X176291408Y-67325408D01*
X176373998Y-67201802D01*
X176388768Y-67127553D01*
X176512905Y-67003632D01*
X176601299Y-66790755D01*
X176601500Y-66560256D01*
X176513478Y-66347225D01*
X176350632Y-66184095D01*
X176137755Y-66095701D01*
X175907256Y-66095500D01*
X175694225Y-66183522D01*
X175531095Y-66346368D01*
X175442701Y-66559245D01*
X175442500Y-66789744D01*
X175530522Y-67002775D01*
X175533463Y-67005722D01*
X173268549Y-69270635D01*
X173113256Y-69270500D01*
X172900225Y-69358522D01*
X172737095Y-69521368D01*
X172648701Y-69734245D01*
X172648500Y-69964744D01*
X170442897Y-69964744D01*
X170417478Y-69903225D01*
X170254632Y-69740095D01*
X170041755Y-69651701D01*
X169811256Y-69651500D01*
X169598225Y-69739522D01*
X169435095Y-69902368D01*
X169346701Y-70115245D01*
X169346500Y-70345744D01*
X159675300Y-70345744D01*
X159675604Y-69997432D01*
X159496430Y-69563796D01*
X159164949Y-69231736D01*
X158731626Y-69051805D01*
X158262432Y-69051396D01*
X157828796Y-69230570D01*
X157496736Y-69562051D01*
X157316805Y-69995374D01*
X157316396Y-70464568D01*
X144435196Y-70464568D01*
X144435604Y-69997432D01*
X144256430Y-69563796D01*
X144014625Y-69321568D01*
X154395396Y-69321568D01*
X154574570Y-69755204D01*
X154906051Y-70087264D01*
X155339374Y-70267195D01*
X155808568Y-70267604D01*
X156242204Y-70088430D01*
X156574264Y-69756949D01*
X156754195Y-69323626D01*
X156754604Y-68854432D01*
X156575430Y-68420796D01*
X156243949Y-68088736D01*
X155848588Y-67924568D01*
X157316396Y-67924568D01*
X157495570Y-68358204D01*
X157827051Y-68690264D01*
X158260374Y-68870195D01*
X158729568Y-68870604D01*
X159163204Y-68691430D01*
X159495264Y-68359949D01*
X159675195Y-67926626D01*
X159675604Y-67457432D01*
X159496430Y-67023796D01*
X159164949Y-66691736D01*
X158731626Y-66511805D01*
X158262432Y-66511396D01*
X157828796Y-66690570D01*
X157496736Y-67022051D01*
X157316805Y-67455374D01*
X157316396Y-67924568D01*
X155848588Y-67924568D01*
X155810626Y-67908805D01*
X155341432Y-67908396D01*
X154907796Y-68087570D01*
X154575736Y-68419051D01*
X154395805Y-68852374D01*
X154395396Y-69321568D01*
X144014625Y-69321568D01*
X143924949Y-69231736D01*
X143491626Y-69051805D01*
X143022432Y-69051396D01*
X142588796Y-69230570D01*
X142256736Y-69562051D01*
X142076805Y-69995374D01*
X142076396Y-70464568D01*
X106983600Y-70464568D01*
X106983600Y-67924568D01*
X142076396Y-67924568D01*
X142255570Y-68358204D01*
X142587051Y-68690264D01*
X143020374Y-68870195D01*
X143489568Y-68870604D01*
X143923204Y-68691430D01*
X144255264Y-68359949D01*
X144435195Y-67926626D01*
X144435604Y-67457432D01*
X144256430Y-67023796D01*
X144014625Y-66781568D01*
X154395396Y-66781568D01*
X154574570Y-67215204D01*
X154906051Y-67547264D01*
X155339374Y-67727195D01*
X155808568Y-67727604D01*
X156242204Y-67548430D01*
X156574264Y-67216949D01*
X156754195Y-66783626D01*
X156754604Y-66314432D01*
X156575430Y-65880796D01*
X156243949Y-65548736D01*
X155848588Y-65384568D01*
X157316396Y-65384568D01*
X157495570Y-65818204D01*
X157827051Y-66150264D01*
X158260374Y-66330195D01*
X158729568Y-66330604D01*
X159163204Y-66151430D01*
X159495264Y-65819949D01*
X159675195Y-65386626D01*
X159675604Y-64917432D01*
X159496430Y-64483796D01*
X159164949Y-64151736D01*
X158731626Y-63971805D01*
X158262432Y-63971396D01*
X157828796Y-64150570D01*
X157496736Y-64482051D01*
X157316805Y-64915374D01*
X157316396Y-65384568D01*
X155848588Y-65384568D01*
X155810626Y-65368805D01*
X155341432Y-65368396D01*
X154907796Y-65547570D01*
X154575736Y-65879051D01*
X154395805Y-66312374D01*
X154395396Y-66781568D01*
X144014625Y-66781568D01*
X143924949Y-66691736D01*
X143491626Y-66511805D01*
X143022432Y-66511396D01*
X142588796Y-66690570D01*
X142256736Y-67022051D01*
X142076805Y-67455374D01*
X142076396Y-67924568D01*
X106983600Y-67924568D01*
X106983600Y-65384568D01*
X142076396Y-65384568D01*
X142255570Y-65818204D01*
X142587051Y-66150264D01*
X143020374Y-66330195D01*
X143489568Y-66330604D01*
X143923204Y-66151430D01*
X144255264Y-65819949D01*
X144435195Y-65386626D01*
X144435604Y-64917432D01*
X144256430Y-64483796D01*
X143924949Y-64151736D01*
X143491626Y-63971805D01*
X143022432Y-63971396D01*
X142588796Y-64150570D01*
X142256736Y-64482051D01*
X142076805Y-64915374D01*
X142076396Y-65384568D01*
X106983600Y-65384568D01*
X106983600Y-62844568D01*
X142076396Y-62844568D01*
X142255570Y-63278204D01*
X142587051Y-63610264D01*
X143020374Y-63790195D01*
X143489568Y-63790604D01*
X143923204Y-63611430D01*
X144255264Y-63279949D01*
X144435195Y-62846626D01*
X144435196Y-62844568D01*
X157316396Y-62844568D01*
X157495570Y-63278204D01*
X157827051Y-63610264D01*
X158260374Y-63790195D01*
X158729568Y-63790604D01*
X159163204Y-63611430D01*
X159495264Y-63279949D01*
X159675195Y-62846626D01*
X159675476Y-62524000D01*
X175321527Y-62524000D01*
X175321527Y-64556000D01*
X175341009Y-64659539D01*
X175402201Y-64754634D01*
X175495568Y-64818429D01*
X175606400Y-64840873D01*
X177333600Y-64840873D01*
X177437139Y-64821391D01*
X177532234Y-64760199D01*
X177596029Y-64666832D01*
X177618473Y-64556000D01*
X177618473Y-63362222D01*
X177867000Y-63362222D01*
X177867000Y-63717778D01*
X177954006Y-64155185D01*
X178201777Y-64526001D01*
X178572593Y-64773772D01*
X179010000Y-64860778D01*
X179447407Y-64773772D01*
X179818223Y-64526001D01*
X180065994Y-64155185D01*
X180153000Y-63717778D01*
X180153000Y-63362222D01*
X180407000Y-63362222D01*
X180407000Y-63717778D01*
X180494006Y-64155185D01*
X180741777Y-64526001D01*
X181112593Y-64773772D01*
X181550000Y-64860778D01*
X181987407Y-64773772D01*
X182358223Y-64526001D01*
X182605994Y-64155185D01*
X182693000Y-63717778D01*
X182693000Y-63362222D01*
X182947000Y-63362222D01*
X182947000Y-63717778D01*
X183034006Y-64155185D01*
X183281777Y-64526001D01*
X183652593Y-64773772D01*
X184090000Y-64860778D01*
X184527407Y-64773772D01*
X184898223Y-64526001D01*
X185145994Y-64155185D01*
X185233000Y-63717778D01*
X185233000Y-63362222D01*
X185487000Y-63362222D01*
X185487000Y-63717778D01*
X185574006Y-64155185D01*
X185821777Y-64526001D01*
X186192593Y-64773772D01*
X186630000Y-64860778D01*
X187067407Y-64773772D01*
X187438223Y-64526001D01*
X187685994Y-64155185D01*
X187773000Y-63717778D01*
X187773000Y-63362222D01*
X188027000Y-63362222D01*
X188027000Y-63717778D01*
X188114006Y-64155185D01*
X188361777Y-64526001D01*
X188732593Y-64773772D01*
X189170000Y-64860778D01*
X189607407Y-64773772D01*
X189978223Y-64526001D01*
X190225994Y-64155185D01*
X190313000Y-63717778D01*
X190313000Y-63362222D01*
X190567000Y-63362222D01*
X190567000Y-63717778D01*
X190654006Y-64155185D01*
X190901777Y-64526001D01*
X191272593Y-64773772D01*
X191710000Y-64860778D01*
X192147407Y-64773772D01*
X192518223Y-64526001D01*
X192765994Y-64155185D01*
X192852995Y-63717802D01*
X192949808Y-63717802D01*
X192825538Y-63943729D01*
X193030148Y-64469716D01*
X193420470Y-64877363D01*
X193849618Y-65083737D01*
X194072200Y-64981950D01*
X194072200Y-63717800D01*
X194427800Y-63717800D01*
X194427800Y-64981950D01*
X194650382Y-65083737D01*
X195079530Y-64877363D01*
X195469852Y-64469716D01*
X195674462Y-63943729D01*
X195550191Y-63717800D01*
X194427800Y-63717800D01*
X194072200Y-63717800D01*
X194052200Y-63717800D01*
X194052200Y-63362200D01*
X194072200Y-63362200D01*
X194072200Y-62098050D01*
X194427800Y-62098050D01*
X194427800Y-63362200D01*
X195550191Y-63362200D01*
X195674462Y-63136271D01*
X195469852Y-62610284D01*
X195079530Y-62202637D01*
X194650382Y-61996263D01*
X194427800Y-62098050D01*
X194072200Y-62098050D01*
X193849618Y-61996263D01*
X193420470Y-62202637D01*
X193030148Y-62610284D01*
X192825538Y-63136271D01*
X192949808Y-63362198D01*
X192852995Y-63362198D01*
X192765994Y-62924815D01*
X192518223Y-62553999D01*
X192147407Y-62306228D01*
X191710000Y-62219222D01*
X191272593Y-62306228D01*
X190901777Y-62553999D01*
X190654006Y-62924815D01*
X190567000Y-63362222D01*
X190313000Y-63362222D01*
X190225994Y-62924815D01*
X189978223Y-62553999D01*
X189607407Y-62306228D01*
X189170000Y-62219222D01*
X188732593Y-62306228D01*
X188361777Y-62553999D01*
X188114006Y-62924815D01*
X188027000Y-63362222D01*
X187773000Y-63362222D01*
X187685994Y-62924815D01*
X187438223Y-62553999D01*
X187067407Y-62306228D01*
X186630000Y-62219222D01*
X186192593Y-62306228D01*
X185821777Y-62553999D01*
X185574006Y-62924815D01*
X185487000Y-63362222D01*
X185233000Y-63362222D01*
X185145994Y-62924815D01*
X184898223Y-62553999D01*
X184527407Y-62306228D01*
X184090000Y-62219222D01*
X183652593Y-62306228D01*
X183281777Y-62553999D01*
X183034006Y-62924815D01*
X182947000Y-63362222D01*
X182693000Y-63362222D01*
X182605994Y-62924815D01*
X182358223Y-62553999D01*
X181987407Y-62306228D01*
X181550000Y-62219222D01*
X181112593Y-62306228D01*
X180741777Y-62553999D01*
X180494006Y-62924815D01*
X180407000Y-63362222D01*
X180153000Y-63362222D01*
X180065994Y-62924815D01*
X179818223Y-62553999D01*
X179447407Y-62306228D01*
X179010000Y-62219222D01*
X178572593Y-62306228D01*
X178201777Y-62553999D01*
X177954006Y-62924815D01*
X177867000Y-63362222D01*
X177618473Y-63362222D01*
X177618473Y-62524000D01*
X177598991Y-62420461D01*
X177537799Y-62325366D01*
X177444432Y-62261571D01*
X177333600Y-62239127D01*
X175606400Y-62239127D01*
X175502861Y-62258609D01*
X175407766Y-62319801D01*
X175343971Y-62413168D01*
X175321527Y-62524000D01*
X159675476Y-62524000D01*
X159675604Y-62377432D01*
X159496430Y-61943796D01*
X159164949Y-61611736D01*
X158731626Y-61431805D01*
X158262432Y-61431396D01*
X157828796Y-61610570D01*
X157496736Y-61942051D01*
X157316805Y-62375374D01*
X157316396Y-62844568D01*
X144435196Y-62844568D01*
X144435604Y-62377432D01*
X144256430Y-61943796D01*
X143924949Y-61611736D01*
X143491626Y-61431805D01*
X143022432Y-61431396D01*
X142588796Y-61610570D01*
X142256736Y-61942051D01*
X142076805Y-62375374D01*
X142076396Y-62844568D01*
X106983600Y-62844568D01*
X106983600Y-58055510D01*
X109457097Y-58055510D01*
X109457097Y-60054490D01*
X109476579Y-60158029D01*
X109537771Y-60253124D01*
X109631138Y-60316919D01*
X109741970Y-60339363D01*
X111740950Y-60339363D01*
X111844489Y-60319881D01*
X111868286Y-60304568D01*
X142076396Y-60304568D01*
X142255570Y-60738204D01*
X142587051Y-61070264D01*
X143020374Y-61250195D01*
X143489568Y-61250604D01*
X143923204Y-61071430D01*
X144255264Y-60739949D01*
X144435195Y-60306626D01*
X144435196Y-60304568D01*
X157316396Y-60304568D01*
X157495570Y-60738204D01*
X157827051Y-61070264D01*
X158260374Y-61250195D01*
X158729568Y-61250604D01*
X159163204Y-61071430D01*
X159495264Y-60739949D01*
X159675195Y-60306626D01*
X159675604Y-59837432D01*
X159496430Y-59403796D01*
X159164949Y-59071736D01*
X158731626Y-58891805D01*
X158262432Y-58891396D01*
X157828796Y-59070570D01*
X157496736Y-59402051D01*
X157316805Y-59835374D01*
X157316396Y-60304568D01*
X144435196Y-60304568D01*
X144435604Y-59837432D01*
X144256430Y-59403796D01*
X143924949Y-59071736D01*
X143529588Y-58907568D01*
X154395396Y-58907568D01*
X154574570Y-59341204D01*
X154906051Y-59673264D01*
X155339374Y-59853195D01*
X155808568Y-59853604D01*
X156242204Y-59674430D01*
X156574264Y-59342949D01*
X156754195Y-58909626D01*
X156754604Y-58440432D01*
X156575430Y-58006796D01*
X156333625Y-57764568D01*
X157316396Y-57764568D01*
X157495570Y-58198204D01*
X157827051Y-58530264D01*
X158260374Y-58710195D01*
X158729568Y-58710604D01*
X159163204Y-58531430D01*
X159495264Y-58199949D01*
X159675195Y-57766626D01*
X159675604Y-57297432D01*
X159496430Y-56863796D01*
X159164949Y-56531736D01*
X158731626Y-56351805D01*
X158262432Y-56351396D01*
X157828796Y-56530570D01*
X157496736Y-56862051D01*
X157316805Y-57295374D01*
X157316396Y-57764568D01*
X156333625Y-57764568D01*
X156243949Y-57674736D01*
X155810626Y-57494805D01*
X155341432Y-57494396D01*
X154907796Y-57673570D01*
X154575736Y-58005051D01*
X154395805Y-58438374D01*
X154395396Y-58907568D01*
X143529588Y-58907568D01*
X143491626Y-58891805D01*
X143022432Y-58891396D01*
X142588796Y-59070570D01*
X142256736Y-59402051D01*
X142076805Y-59835374D01*
X142076396Y-60304568D01*
X111868286Y-60304568D01*
X111939584Y-60258689D01*
X112003379Y-60165322D01*
X112025823Y-60054490D01*
X112025823Y-58055510D01*
X112006341Y-57951971D01*
X111945149Y-57856876D01*
X111851782Y-57793081D01*
X111740950Y-57770637D01*
X109741970Y-57770637D01*
X109638431Y-57790119D01*
X109543336Y-57851311D01*
X109479541Y-57944678D01*
X109457097Y-58055510D01*
X106983600Y-58055510D01*
X106983600Y-57764568D01*
X142076396Y-57764568D01*
X142255570Y-58198204D01*
X142587051Y-58530264D01*
X143020374Y-58710195D01*
X143489568Y-58710604D01*
X143923204Y-58531430D01*
X144255264Y-58199949D01*
X144435195Y-57766626D01*
X144435604Y-57297432D01*
X144256430Y-56863796D01*
X143924949Y-56531736D01*
X143694403Y-56436005D01*
X143859624Y-56367568D01*
X154395396Y-56367568D01*
X154574570Y-56801204D01*
X154906051Y-57133264D01*
X155339374Y-57313195D01*
X155808568Y-57313604D01*
X156242204Y-57134430D01*
X156574264Y-56802949D01*
X156754195Y-56369626D01*
X156754604Y-55900432D01*
X156575430Y-55466796D01*
X156333625Y-55224568D01*
X157316396Y-55224568D01*
X157495570Y-55658204D01*
X157827051Y-55990264D01*
X158260374Y-56170195D01*
X158729568Y-56170604D01*
X159163204Y-55991430D01*
X159495264Y-55659949D01*
X159675195Y-55226626D01*
X159675604Y-54757432D01*
X159496430Y-54323796D01*
X159164949Y-53991736D01*
X158731626Y-53811805D01*
X158262432Y-53811396D01*
X157828796Y-53990570D01*
X157496736Y-54322051D01*
X157316805Y-54755374D01*
X157316396Y-55224568D01*
X156333625Y-55224568D01*
X156243949Y-55134736D01*
X155810626Y-54954805D01*
X155341432Y-54954396D01*
X154907796Y-55133570D01*
X154575736Y-55465051D01*
X154395805Y-55898374D01*
X154395396Y-56367568D01*
X143859624Y-56367568D01*
X143995478Y-56311296D01*
X144088842Y-56075290D01*
X143256000Y-55242447D01*
X142423158Y-56075290D01*
X142516522Y-56311296D01*
X142854034Y-56420977D01*
X142588796Y-56530570D01*
X142256736Y-56862051D01*
X142076805Y-57295374D01*
X142076396Y-57764568D01*
X106983600Y-57764568D01*
X106983600Y-55229935D01*
X116141291Y-55229935D01*
X116324582Y-55673535D01*
X116663680Y-56013225D01*
X117106959Y-56197290D01*
X117586935Y-56197709D01*
X118030535Y-56014418D01*
X118370225Y-55675320D01*
X118554290Y-55232041D01*
X118554655Y-54813066D01*
X141753220Y-54813066D01*
X141799520Y-55401700D01*
X141935704Y-55730478D01*
X142171710Y-55823842D01*
X143004553Y-54991000D01*
X143507447Y-54991000D01*
X144340290Y-55823842D01*
X144576296Y-55730478D01*
X144758780Y-55168934D01*
X144712480Y-54580300D01*
X144576296Y-54251522D01*
X144340290Y-54158158D01*
X143507447Y-54991000D01*
X143004553Y-54991000D01*
X142171710Y-54158158D01*
X141935704Y-54251522D01*
X141753220Y-54813066D01*
X118554655Y-54813066D01*
X118554709Y-54752065D01*
X118371418Y-54308465D01*
X118032320Y-53968775D01*
X117589041Y-53784710D01*
X117109065Y-53784291D01*
X116665465Y-53967582D01*
X116325775Y-54306680D01*
X116141710Y-54749959D01*
X116141291Y-55229935D01*
X106983600Y-55229935D01*
X106983600Y-52689935D01*
X116141291Y-52689935D01*
X116324582Y-53133535D01*
X116663680Y-53473225D01*
X117106959Y-53657290D01*
X117586935Y-53657709D01*
X118030535Y-53474418D01*
X118370225Y-53135320D01*
X118414435Y-53028850D01*
X122859800Y-53028850D01*
X122859800Y-54091204D01*
X122948739Y-54305922D01*
X123113077Y-54470261D01*
X123327795Y-54559200D01*
X124390150Y-54559200D01*
X124536200Y-54413150D01*
X124536200Y-52882800D01*
X124891800Y-52882800D01*
X124891800Y-54413150D01*
X125037850Y-54559200D01*
X126100205Y-54559200D01*
X126314923Y-54470261D01*
X126479261Y-54305922D01*
X126568200Y-54091204D01*
X126568200Y-53028850D01*
X126422150Y-52882800D01*
X124891800Y-52882800D01*
X124536200Y-52882800D01*
X123005850Y-52882800D01*
X122859800Y-53028850D01*
X118414435Y-53028850D01*
X118548908Y-52705000D01*
X128214245Y-52705000D01*
X128332186Y-53297930D01*
X128668054Y-53800591D01*
X129170715Y-54136459D01*
X129763645Y-54254400D01*
X129824355Y-54254400D01*
X130417285Y-54136459D01*
X130919946Y-53800591D01*
X131255814Y-53297930D01*
X131373755Y-52705000D01*
X131369691Y-52684568D01*
X142076396Y-52684568D01*
X142255570Y-53118204D01*
X142587051Y-53450264D01*
X142817597Y-53545995D01*
X142516522Y-53670704D01*
X142423158Y-53906710D01*
X143256000Y-54739553D01*
X144088842Y-53906710D01*
X143995478Y-53670704D01*
X143657966Y-53561023D01*
X143923204Y-53451430D01*
X144255264Y-53119949D01*
X144435195Y-52686626D01*
X144435196Y-52684568D01*
X157316396Y-52684568D01*
X157495570Y-53118204D01*
X157827051Y-53450264D01*
X158260374Y-53630195D01*
X158729568Y-53630604D01*
X159163204Y-53451430D01*
X159495264Y-53119949D01*
X159675195Y-52686626D01*
X159675604Y-52217432D01*
X159496430Y-51783796D01*
X159164949Y-51451736D01*
X158934403Y-51356005D01*
X159235478Y-51231296D01*
X159328842Y-50995290D01*
X158496000Y-50162447D01*
X157663158Y-50995290D01*
X157756522Y-51231296D01*
X158094034Y-51340977D01*
X157828796Y-51450570D01*
X157496736Y-51782051D01*
X157316805Y-52215374D01*
X157316396Y-52684568D01*
X144435196Y-52684568D01*
X144435604Y-52217432D01*
X144256430Y-51783796D01*
X143924949Y-51451736D01*
X143491626Y-51271805D01*
X143022432Y-51271396D01*
X142588796Y-51450570D01*
X142256736Y-51782051D01*
X142076805Y-52215374D01*
X142076396Y-52684568D01*
X131369691Y-52684568D01*
X131255814Y-52112070D01*
X130919946Y-51609409D01*
X130417285Y-51273541D01*
X129824355Y-51155600D01*
X129763645Y-51155600D01*
X129170715Y-51273541D01*
X128668054Y-51609409D01*
X128332186Y-52112070D01*
X128214245Y-52705000D01*
X118548908Y-52705000D01*
X118554290Y-52692041D01*
X118554709Y-52212065D01*
X118371418Y-51768465D01*
X118032320Y-51428775D01*
X117767461Y-51318796D01*
X122859800Y-51318796D01*
X122859800Y-52381150D01*
X123005850Y-52527200D01*
X124536200Y-52527200D01*
X124536200Y-50996850D01*
X124891800Y-50996850D01*
X124891800Y-52527200D01*
X126422150Y-52527200D01*
X126568200Y-52381150D01*
X126568200Y-51318796D01*
X126479261Y-51104078D01*
X126314923Y-50939739D01*
X126100205Y-50850800D01*
X125037850Y-50850800D01*
X124891800Y-50996850D01*
X124536200Y-50996850D01*
X124390150Y-50850800D01*
X123327795Y-50850800D01*
X123113077Y-50939739D01*
X122948739Y-51104078D01*
X122859800Y-51318796D01*
X117767461Y-51318796D01*
X117589041Y-51244710D01*
X117109065Y-51244291D01*
X116665465Y-51427582D01*
X116325775Y-51766680D01*
X116141710Y-52209959D01*
X116141291Y-52689935D01*
X106983600Y-52689935D01*
X106983600Y-49148271D01*
X109462348Y-49148271D01*
X109656638Y-49618487D01*
X110016081Y-49978558D01*
X110485957Y-50173668D01*
X110994731Y-50174112D01*
X111053243Y-50149935D01*
X116141291Y-50149935D01*
X116324582Y-50593535D01*
X116663680Y-50933225D01*
X117106959Y-51117290D01*
X117586935Y-51117709D01*
X118030535Y-50934418D01*
X118370225Y-50595320D01*
X118554290Y-50152041D01*
X118554296Y-50144568D01*
X142076396Y-50144568D01*
X142255570Y-50578204D01*
X142587051Y-50910264D01*
X143020374Y-51090195D01*
X143489568Y-51090604D01*
X143923204Y-50911430D01*
X144255264Y-50579949D01*
X144435195Y-50146626D01*
X144435555Y-49733066D01*
X156993220Y-49733066D01*
X157039520Y-50321700D01*
X157175704Y-50650478D01*
X157411710Y-50743842D01*
X158244553Y-49911000D01*
X158747447Y-49911000D01*
X159580290Y-50743842D01*
X159816296Y-50650478D01*
X159998780Y-50088934D01*
X159952480Y-49500300D01*
X159816296Y-49171522D01*
X159580290Y-49078158D01*
X158747447Y-49911000D01*
X158244553Y-49911000D01*
X157411710Y-49078158D01*
X157175704Y-49171522D01*
X156993220Y-49733066D01*
X144435555Y-49733066D01*
X144435604Y-49677432D01*
X144256430Y-49243796D01*
X143924949Y-48911736D01*
X143491626Y-48731805D01*
X143022432Y-48731396D01*
X142588796Y-48910570D01*
X142256736Y-49242051D01*
X142076805Y-49675374D01*
X142076396Y-50144568D01*
X118554296Y-50144568D01*
X118554709Y-49672065D01*
X118371418Y-49228465D01*
X118032320Y-48888775D01*
X117589041Y-48704710D01*
X117109065Y-48704291D01*
X116665465Y-48887582D01*
X116325775Y-49226680D01*
X116141710Y-49669959D01*
X116141291Y-50149935D01*
X111053243Y-50149935D01*
X111464947Y-49979822D01*
X111825018Y-49620379D01*
X112020128Y-49150503D01*
X112020572Y-48641729D01*
X111826282Y-48171513D01*
X111466839Y-47811442D01*
X110996963Y-47616332D01*
X110488189Y-47615888D01*
X110017973Y-47810178D01*
X109657902Y-48169621D01*
X109462792Y-48639497D01*
X109462348Y-49148271D01*
X106983600Y-49148271D01*
X106983600Y-47604568D01*
X142076396Y-47604568D01*
X142255570Y-48038204D01*
X142587051Y-48370264D01*
X143020374Y-48550195D01*
X143489568Y-48550604D01*
X143923204Y-48371430D01*
X144255264Y-48039949D01*
X144435195Y-47606626D01*
X144435196Y-47604568D01*
X157316396Y-47604568D01*
X157495570Y-48038204D01*
X157827051Y-48370264D01*
X158057597Y-48465995D01*
X157756522Y-48590704D01*
X157663158Y-48826710D01*
X158496000Y-49659553D01*
X159328842Y-48826710D01*
X159235478Y-48590704D01*
X158897966Y-48481023D01*
X159163204Y-48371430D01*
X159495264Y-48039949D01*
X159675195Y-47606626D01*
X159675604Y-47137432D01*
X159496430Y-46703796D01*
X159164949Y-46371736D01*
X158731626Y-46191805D01*
X158262432Y-46191396D01*
X157828796Y-46370570D01*
X157496736Y-46702051D01*
X157316805Y-47135374D01*
X157316396Y-47604568D01*
X144435196Y-47604568D01*
X144435604Y-47137432D01*
X144256430Y-46703796D01*
X143924949Y-46371736D01*
X143491626Y-46191805D01*
X143022432Y-46191396D01*
X142588796Y-46370570D01*
X142256736Y-46702051D01*
X142076805Y-47135374D01*
X142076396Y-47604568D01*
X106983600Y-47604568D01*
X106983600Y-43549720D01*
X107352776Y-43549720D01*
X107636396Y-44236132D01*
X108161105Y-44761758D01*
X108847021Y-45046575D01*
X109589720Y-45047224D01*
X110276132Y-44763604D01*
X110801758Y-44238895D01*
X111086575Y-43552979D01*
X111087224Y-42810280D01*
X110803604Y-42123868D01*
X110278895Y-41598242D01*
X109592979Y-41313425D01*
X108850280Y-41312776D01*
X108163868Y-41596396D01*
X107638242Y-42121105D01*
X107353425Y-42807021D01*
X107352776Y-43549720D01*
X106983600Y-43549720D01*
X106983600Y-40943600D01*
X162483800Y-40943600D01*
X162483800Y-60960000D01*
X162483800Y-60960000D01*
G37*
X162483800Y-60960000D02*
X162489803Y-60989646D01*
X162506868Y-61014621D01*
X162532305Y-61030989D01*
X162560000Y-61036200D01*
X205436400Y-61036200D01*
X205436400Y-119076400D01*
X106983600Y-119076400D01*
X106983600Y-117209720D01*
X107352776Y-117209720D01*
X107636396Y-117896132D01*
X108161105Y-118421758D01*
X108847021Y-118706575D01*
X109589720Y-118707224D01*
X110276132Y-118423604D01*
X110801758Y-117898895D01*
X111086575Y-117212979D01*
X111086577Y-117209720D01*
X201332776Y-117209720D01*
X201616396Y-117896132D01*
X202141105Y-118421758D01*
X202827021Y-118706575D01*
X203569720Y-118707224D01*
X204256132Y-118423604D01*
X204781758Y-117898895D01*
X205066575Y-117212979D01*
X205067224Y-116470280D01*
X204783604Y-115783868D01*
X204258895Y-115258242D01*
X203572979Y-114973425D01*
X202830280Y-114972776D01*
X202143868Y-115256396D01*
X201618242Y-115781105D01*
X201333425Y-116467021D01*
X201332776Y-117209720D01*
X111086577Y-117209720D01*
X111087224Y-116470280D01*
X110803604Y-115783868D01*
X110285863Y-115265222D01*
X120777000Y-115265222D01*
X120777000Y-115620778D01*
X120864006Y-116058185D01*
X121111777Y-116429001D01*
X121482593Y-116676772D01*
X121920000Y-116763778D01*
X122357407Y-116676772D01*
X122728223Y-116429001D01*
X122975994Y-116058185D01*
X123063000Y-115620778D01*
X123063000Y-115265222D01*
X123317000Y-115265222D01*
X123317000Y-115620778D01*
X123404006Y-116058185D01*
X123651777Y-116429001D01*
X124022593Y-116676772D01*
X124460000Y-116763778D01*
X124897407Y-116676772D01*
X125268223Y-116429001D01*
X125515994Y-116058185D01*
X125603000Y-115620778D01*
X125603000Y-115265222D01*
X125857000Y-115265222D01*
X125857000Y-115620778D01*
X125944006Y-116058185D01*
X126191777Y-116429001D01*
X126562593Y-116676772D01*
X127000000Y-116763778D01*
X127437407Y-116676772D01*
X127808223Y-116429001D01*
X128055994Y-116058185D01*
X128143000Y-115620778D01*
X128143000Y-115265222D01*
X128055994Y-114827815D01*
X127808223Y-114456999D01*
X127763327Y-114427000D01*
X128391527Y-114427000D01*
X128391527Y-116459000D01*
X128411009Y-116562539D01*
X128472201Y-116657634D01*
X128565568Y-116721429D01*
X128676400Y-116743873D01*
X130403600Y-116743873D01*
X130507139Y-116724391D01*
X130602234Y-116663199D01*
X130666029Y-116569832D01*
X130688473Y-116459000D01*
X130688473Y-115392222D01*
X179197000Y-115392222D01*
X179197000Y-115747778D01*
X179284006Y-116185185D01*
X179531777Y-116556001D01*
X179902593Y-116803772D01*
X180340000Y-116890778D01*
X180777407Y-116803772D01*
X181148223Y-116556001D01*
X181395994Y-116185185D01*
X181483000Y-115747778D01*
X181483000Y-115392222D01*
X181737000Y-115392222D01*
X181737000Y-115747778D01*
X181824006Y-116185185D01*
X182071777Y-116556001D01*
X182442593Y-116803772D01*
X182880000Y-116890778D01*
X183317407Y-116803772D01*
X183688223Y-116556001D01*
X183935994Y-116185185D01*
X184023000Y-115747778D01*
X184023000Y-115392222D01*
X184277000Y-115392222D01*
X184277000Y-115747778D01*
X184364006Y-116185185D01*
X184611777Y-116556001D01*
X184982593Y-116803772D01*
X185420000Y-116890778D01*
X185857407Y-116803772D01*
X186228223Y-116556001D01*
X186475994Y-116185185D01*
X186563000Y-115747778D01*
X186563000Y-115392222D01*
X186475994Y-114954815D01*
X186228223Y-114583999D01*
X186183327Y-114554000D01*
X186811527Y-114554000D01*
X186811527Y-116586000D01*
X186831009Y-116689539D01*
X186892201Y-116784634D01*
X186985568Y-116848429D01*
X187096400Y-116870873D01*
X188823600Y-116870873D01*
X188927139Y-116851391D01*
X189022234Y-116790199D01*
X189086029Y-116696832D01*
X189108473Y-116586000D01*
X189108473Y-114554000D01*
X189088991Y-114450461D01*
X189027799Y-114355366D01*
X188934432Y-114291571D01*
X188823600Y-114269127D01*
X187096400Y-114269127D01*
X186992861Y-114288609D01*
X186897766Y-114349801D01*
X186833971Y-114443168D01*
X186811527Y-114554000D01*
X186183327Y-114554000D01*
X185857407Y-114336228D01*
X185420000Y-114249222D01*
X184982593Y-114336228D01*
X184611777Y-114583999D01*
X184364006Y-114954815D01*
X184277000Y-115392222D01*
X184023000Y-115392222D01*
X183935994Y-114954815D01*
X183688223Y-114583999D01*
X183317407Y-114336228D01*
X182880000Y-114249222D01*
X182442593Y-114336228D01*
X182071777Y-114583999D01*
X181824006Y-114954815D01*
X181737000Y-115392222D01*
X181483000Y-115392222D01*
X181395994Y-114954815D01*
X181148223Y-114583999D01*
X180777407Y-114336228D01*
X180340000Y-114249222D01*
X179902593Y-114336228D01*
X179531777Y-114583999D01*
X179284006Y-114954815D01*
X179197000Y-115392222D01*
X130688473Y-115392222D01*
X130688473Y-114427000D01*
X130668991Y-114323461D01*
X130607799Y-114228366D01*
X130514432Y-114164571D01*
X130403600Y-114142127D01*
X128676400Y-114142127D01*
X128572861Y-114161609D01*
X128477766Y-114222801D01*
X128413971Y-114316168D01*
X128391527Y-114427000D01*
X127763327Y-114427000D01*
X127437407Y-114209228D01*
X127000000Y-114122222D01*
X126562593Y-114209228D01*
X126191777Y-114456999D01*
X125944006Y-114827815D01*
X125857000Y-115265222D01*
X125603000Y-115265222D01*
X125515994Y-114827815D01*
X125268223Y-114456999D01*
X124897407Y-114209228D01*
X124460000Y-114122222D01*
X124022593Y-114209228D01*
X123651777Y-114456999D01*
X123404006Y-114827815D01*
X123317000Y-115265222D01*
X123063000Y-115265222D01*
X122975994Y-114827815D01*
X122728223Y-114456999D01*
X122357407Y-114209228D01*
X121920000Y-114122222D01*
X121482593Y-114209228D01*
X121111777Y-114456999D01*
X120864006Y-114827815D01*
X120777000Y-115265222D01*
X110285863Y-115265222D01*
X110278895Y-115258242D01*
X109592979Y-114973425D01*
X108850280Y-114972776D01*
X108163868Y-115256396D01*
X107638242Y-115781105D01*
X107353425Y-116467021D01*
X107352776Y-117209720D01*
X106983600Y-117209720D01*
X106983600Y-110893729D01*
X115415538Y-110893729D01*
X115620148Y-111419716D01*
X116010470Y-111827363D01*
X116439618Y-112033737D01*
X116662200Y-111931950D01*
X116662200Y-110667800D01*
X115539809Y-110667800D01*
X115415538Y-110893729D01*
X106983600Y-110893729D01*
X106983600Y-110086271D01*
X115415538Y-110086271D01*
X115539809Y-110312200D01*
X116662200Y-110312200D01*
X116662200Y-109048050D01*
X117017800Y-109048050D01*
X117017800Y-110312200D01*
X117037800Y-110312200D01*
X117037800Y-110667800D01*
X117017800Y-110667800D01*
X117017800Y-111931950D01*
X117240382Y-112033737D01*
X117669530Y-111827363D01*
X118059852Y-111419716D01*
X118264462Y-110893729D01*
X118140192Y-110667802D01*
X118237005Y-110667802D01*
X118324006Y-111105185D01*
X118571777Y-111476001D01*
X118942593Y-111723772D01*
X119380000Y-111810778D01*
X119817407Y-111723772D01*
X120188223Y-111476001D01*
X120435994Y-111105185D01*
X120523000Y-110667778D01*
X120523000Y-110312222D01*
X120777000Y-110312222D01*
X120777000Y-110667778D01*
X120864006Y-111105185D01*
X121111777Y-111476001D01*
X121482593Y-111723772D01*
X121920000Y-111810778D01*
X122357407Y-111723772D01*
X122728223Y-111476001D01*
X122975994Y-111105185D01*
X123063000Y-110667778D01*
X123063000Y-110312222D01*
X123317000Y-110312222D01*
X123317000Y-110667778D01*
X123404006Y-111105185D01*
X123651777Y-111476001D01*
X124022593Y-111723772D01*
X124460000Y-111810778D01*
X124897407Y-111723772D01*
X125268223Y-111476001D01*
X125515994Y-111105185D01*
X125603000Y-110667778D01*
X125603000Y-110312222D01*
X125857000Y-110312222D01*
X125857000Y-110667778D01*
X125944006Y-111105185D01*
X126191777Y-111476001D01*
X126562593Y-111723772D01*
X127000000Y-111810778D01*
X127437407Y-111723772D01*
X127808223Y-111476001D01*
X128055994Y-111105185D01*
X128143000Y-110667778D01*
X128143000Y-110312222D01*
X128397000Y-110312222D01*
X128397000Y-110667778D01*
X128484006Y-111105185D01*
X128731777Y-111476001D01*
X129102593Y-111723772D01*
X129540000Y-111810778D01*
X129977407Y-111723772D01*
X130348223Y-111476001D01*
X130595994Y-111105185D01*
X130682995Y-110667802D01*
X130779808Y-110667802D01*
X130655538Y-110893729D01*
X130860148Y-111419716D01*
X131250470Y-111827363D01*
X131679618Y-112033737D01*
X131902200Y-111931950D01*
X131902200Y-110667800D01*
X131882200Y-110667800D01*
X131882200Y-110312200D01*
X131902200Y-110312200D01*
X131902200Y-109048050D01*
X132257800Y-109048050D01*
X132257800Y-110312200D01*
X132277800Y-110312200D01*
X132277800Y-110667800D01*
X132257800Y-110667800D01*
X132257800Y-111931950D01*
X132480382Y-112033737D01*
X132909530Y-111827363D01*
X133299852Y-111419716D01*
X133471527Y-110978394D01*
X133471527Y-111506000D01*
X133491009Y-111609539D01*
X133552201Y-111704634D01*
X133645568Y-111768429D01*
X133756400Y-111790873D01*
X135483600Y-111790873D01*
X135587139Y-111771391D01*
X135682234Y-111710199D01*
X135746029Y-111616832D01*
X135768473Y-111506000D01*
X135768473Y-110893729D01*
X173835538Y-110893729D01*
X174040148Y-111419716D01*
X174430470Y-111827363D01*
X174859618Y-112033737D01*
X175082200Y-111931950D01*
X175082200Y-110667800D01*
X173959809Y-110667800D01*
X173835538Y-110893729D01*
X135768473Y-110893729D01*
X135768473Y-110086271D01*
X173835538Y-110086271D01*
X173959809Y-110312200D01*
X175082200Y-110312200D01*
X175082200Y-109048050D01*
X175437800Y-109048050D01*
X175437800Y-110312200D01*
X175457800Y-110312200D01*
X175457800Y-110667800D01*
X175437800Y-110667800D01*
X175437800Y-111931950D01*
X175660382Y-112033737D01*
X176089530Y-111827363D01*
X176479852Y-111419716D01*
X176684462Y-110893729D01*
X176560192Y-110667802D01*
X176657005Y-110667802D01*
X176744006Y-111105185D01*
X176991777Y-111476001D01*
X177362593Y-111723772D01*
X177800000Y-111810778D01*
X178237407Y-111723772D01*
X178608223Y-111476001D01*
X178855994Y-111105185D01*
X178943000Y-110667778D01*
X178943000Y-110312222D01*
X179197000Y-110312222D01*
X179197000Y-110667778D01*
X179284006Y-111105185D01*
X179531777Y-111476001D01*
X179902593Y-111723772D01*
X180340000Y-111810778D01*
X180777407Y-111723772D01*
X181148223Y-111476001D01*
X181395994Y-111105185D01*
X181483000Y-110667778D01*
X181483000Y-110312222D01*
X181737000Y-110312222D01*
X181737000Y-110667778D01*
X181824006Y-111105185D01*
X182071777Y-111476001D01*
X182442593Y-111723772D01*
X182880000Y-111810778D01*
X183317407Y-111723772D01*
X183688223Y-111476001D01*
X183935994Y-111105185D01*
X184023000Y-110667778D01*
X184023000Y-110312222D01*
X184277000Y-110312222D01*
X184277000Y-110667778D01*
X184364006Y-111105185D01*
X184611777Y-111476001D01*
X184982593Y-111723772D01*
X185420000Y-111810778D01*
X185857407Y-111723772D01*
X186228223Y-111476001D01*
X186475994Y-111105185D01*
X186563000Y-110667778D01*
X186563000Y-110312222D01*
X186817000Y-110312222D01*
X186817000Y-110667778D01*
X186904006Y-111105185D01*
X187151777Y-111476001D01*
X187522593Y-111723772D01*
X187960000Y-111810778D01*
X188397407Y-111723772D01*
X188768223Y-111476001D01*
X189015994Y-111105185D01*
X189102995Y-110667802D01*
X189199808Y-110667802D01*
X189075538Y-110893729D01*
X189280148Y-111419716D01*
X189670470Y-111827363D01*
X190099618Y-112033737D01*
X190322200Y-111931950D01*
X190322200Y-110667800D01*
X190302200Y-110667800D01*
X190302200Y-110312200D01*
X190322200Y-110312200D01*
X190322200Y-109048050D01*
X190677800Y-109048050D01*
X190677800Y-110312200D01*
X190697800Y-110312200D01*
X190697800Y-110667800D01*
X190677800Y-110667800D01*
X190677800Y-111931950D01*
X190900382Y-112033737D01*
X191329530Y-111827363D01*
X191719852Y-111419716D01*
X191891527Y-110978394D01*
X191891527Y-111506000D01*
X191911009Y-111609539D01*
X191972201Y-111704634D01*
X192065568Y-111768429D01*
X192176400Y-111790873D01*
X193903600Y-111790873D01*
X194007139Y-111771391D01*
X194102234Y-111710199D01*
X194166029Y-111616832D01*
X194188473Y-111506000D01*
X194188473Y-109474000D01*
X194168991Y-109370461D01*
X194107799Y-109275366D01*
X194014432Y-109211571D01*
X193903600Y-109189127D01*
X192176400Y-109189127D01*
X192072861Y-109208609D01*
X191977766Y-109269801D01*
X191913971Y-109363168D01*
X191891527Y-109474000D01*
X191891527Y-110001606D01*
X191719852Y-109560284D01*
X191329530Y-109152637D01*
X190900382Y-108946263D01*
X190677800Y-109048050D01*
X190322200Y-109048050D01*
X190099618Y-108946263D01*
X189670470Y-109152637D01*
X189280148Y-109560284D01*
X189075538Y-110086271D01*
X189199808Y-110312198D01*
X189102995Y-110312198D01*
X189015994Y-109874815D01*
X188768223Y-109503999D01*
X188397407Y-109256228D01*
X187960000Y-109169222D01*
X187522593Y-109256228D01*
X187151777Y-109503999D01*
X186904006Y-109874815D01*
X186817000Y-110312222D01*
X186563000Y-110312222D01*
X186475994Y-109874815D01*
X186228223Y-109503999D01*
X185857407Y-109256228D01*
X185420000Y-109169222D01*
X184982593Y-109256228D01*
X184611777Y-109503999D01*
X184364006Y-109874815D01*
X184277000Y-110312222D01*
X184023000Y-110312222D01*
X183935994Y-109874815D01*
X183688223Y-109503999D01*
X183317407Y-109256228D01*
X182880000Y-109169222D01*
X182442593Y-109256228D01*
X182071777Y-109503999D01*
X181824006Y-109874815D01*
X181737000Y-110312222D01*
X181483000Y-110312222D01*
X181395994Y-109874815D01*
X181148223Y-109503999D01*
X180777407Y-109256228D01*
X180340000Y-109169222D01*
X179902593Y-109256228D01*
X179531777Y-109503999D01*
X179284006Y-109874815D01*
X179197000Y-110312222D01*
X178943000Y-110312222D01*
X178855994Y-109874815D01*
X178608223Y-109503999D01*
X178237407Y-109256228D01*
X177800000Y-109169222D01*
X177362593Y-109256228D01*
X176991777Y-109503999D01*
X176744006Y-109874815D01*
X176657005Y-110312198D01*
X176560192Y-110312198D01*
X176684462Y-110086271D01*
X176479852Y-109560284D01*
X176089530Y-109152637D01*
X175660382Y-108946263D01*
X175437800Y-109048050D01*
X175082200Y-109048050D01*
X174859618Y-108946263D01*
X174430470Y-109152637D01*
X174040148Y-109560284D01*
X173835538Y-110086271D01*
X135768473Y-110086271D01*
X135768473Y-109474000D01*
X135748991Y-109370461D01*
X135687799Y-109275366D01*
X135594432Y-109211571D01*
X135483600Y-109189127D01*
X133756400Y-109189127D01*
X133652861Y-109208609D01*
X133557766Y-109269801D01*
X133493971Y-109363168D01*
X133471527Y-109474000D01*
X133471527Y-110001606D01*
X133299852Y-109560284D01*
X132909530Y-109152637D01*
X132480382Y-108946263D01*
X132257800Y-109048050D01*
X131902200Y-109048050D01*
X131679618Y-108946263D01*
X131250470Y-109152637D01*
X130860148Y-109560284D01*
X130655538Y-110086271D01*
X130779808Y-110312198D01*
X130682995Y-110312198D01*
X130595994Y-109874815D01*
X130348223Y-109503999D01*
X129977407Y-109256228D01*
X129540000Y-109169222D01*
X129102593Y-109256228D01*
X128731777Y-109503999D01*
X128484006Y-109874815D01*
X128397000Y-110312222D01*
X128143000Y-110312222D01*
X128055994Y-109874815D01*
X127808223Y-109503999D01*
X127437407Y-109256228D01*
X127000000Y-109169222D01*
X126562593Y-109256228D01*
X126191777Y-109503999D01*
X125944006Y-109874815D01*
X125857000Y-110312222D01*
X125603000Y-110312222D01*
X125515994Y-109874815D01*
X125268223Y-109503999D01*
X124897407Y-109256228D01*
X124460000Y-109169222D01*
X124022593Y-109256228D01*
X123651777Y-109503999D01*
X123404006Y-109874815D01*
X123317000Y-110312222D01*
X123063000Y-110312222D01*
X122975994Y-109874815D01*
X122728223Y-109503999D01*
X122357407Y-109256228D01*
X121920000Y-109169222D01*
X121482593Y-109256228D01*
X121111777Y-109503999D01*
X120864006Y-109874815D01*
X120777000Y-110312222D01*
X120523000Y-110312222D01*
X120435994Y-109874815D01*
X120188223Y-109503999D01*
X119817407Y-109256228D01*
X119380000Y-109169222D01*
X118942593Y-109256228D01*
X118571777Y-109503999D01*
X118324006Y-109874815D01*
X118237005Y-110312198D01*
X118140192Y-110312198D01*
X118264462Y-110086271D01*
X118059852Y-109560284D01*
X117669530Y-109152637D01*
X117240382Y-108946263D01*
X117017800Y-109048050D01*
X116662200Y-109048050D01*
X116439618Y-108946263D01*
X116010470Y-109152637D01*
X115620148Y-109560284D01*
X115415538Y-110086271D01*
X106983600Y-110086271D01*
X106983600Y-104633000D01*
X132796127Y-104633000D01*
X132796127Y-105933000D01*
X132815609Y-106036539D01*
X132876801Y-106131634D01*
X132970168Y-106195429D01*
X133081000Y-106217873D01*
X134381000Y-106217873D01*
X134484539Y-106198391D01*
X134579634Y-106137199D01*
X134643429Y-106043832D01*
X134665873Y-105933000D01*
X134665873Y-104760000D01*
X190200127Y-104760000D01*
X190200127Y-106060000D01*
X190219609Y-106163539D01*
X190280801Y-106258634D01*
X190374168Y-106322429D01*
X190485000Y-106344873D01*
X191785000Y-106344873D01*
X191888539Y-106325391D01*
X191983634Y-106264199D01*
X192047429Y-106170832D01*
X192069873Y-106060000D01*
X192069873Y-104760000D01*
X192050391Y-104656461D01*
X191989199Y-104561366D01*
X191895832Y-104497571D01*
X191785000Y-104475127D01*
X190485000Y-104475127D01*
X190381461Y-104494609D01*
X190286366Y-104555801D01*
X190222571Y-104649168D01*
X190200127Y-104760000D01*
X134665873Y-104760000D01*
X134665873Y-104633000D01*
X134646391Y-104529461D01*
X134585199Y-104434366D01*
X134491832Y-104370571D01*
X134381000Y-104348127D01*
X133081000Y-104348127D01*
X132977461Y-104367609D01*
X132882366Y-104428801D01*
X132818571Y-104522168D01*
X132796127Y-104633000D01*
X106983600Y-104633000D01*
X106983600Y-103685146D01*
X133080301Y-103685146D01*
X133142607Y-103895345D01*
X133613072Y-104035842D01*
X134101490Y-103985605D01*
X134319393Y-103895345D01*
X134344054Y-103812146D01*
X190484301Y-103812146D01*
X190546607Y-104022345D01*
X191017072Y-104162842D01*
X191505490Y-104112605D01*
X191723393Y-104022345D01*
X191785699Y-103812146D01*
X191135000Y-103161447D01*
X190484301Y-103812146D01*
X134344054Y-103812146D01*
X134381699Y-103685146D01*
X133731000Y-103034447D01*
X133080301Y-103685146D01*
X106983600Y-103685146D01*
X106983600Y-102665072D01*
X132478158Y-102665072D01*
X132528395Y-103153490D01*
X132618655Y-103371393D01*
X132828854Y-103433699D01*
X133479553Y-102783000D01*
X133982447Y-102783000D01*
X134633146Y-103433699D01*
X134843345Y-103371393D01*
X134983842Y-102900928D01*
X134972646Y-102792072D01*
X189882158Y-102792072D01*
X189932395Y-103280490D01*
X190022655Y-103498393D01*
X190232854Y-103560699D01*
X190883553Y-102910000D01*
X191386447Y-102910000D01*
X192037146Y-103560699D01*
X192247345Y-103498393D01*
X192387842Y-103027928D01*
X192337605Y-102539510D01*
X192247345Y-102321607D01*
X192037146Y-102259301D01*
X191386447Y-102910000D01*
X190883553Y-102910000D01*
X190232854Y-102259301D01*
X190022655Y-102321607D01*
X189882158Y-102792072D01*
X134972646Y-102792072D01*
X134933605Y-102412510D01*
X134843345Y-102194607D01*
X134633146Y-102132301D01*
X133982447Y-102783000D01*
X133479553Y-102783000D01*
X132828854Y-102132301D01*
X132618655Y-102194607D01*
X132478158Y-102665072D01*
X106983600Y-102665072D01*
X106983600Y-101880854D01*
X133080301Y-101880854D01*
X133731000Y-102531553D01*
X134254699Y-102007854D01*
X190484301Y-102007854D01*
X191135000Y-102658553D01*
X191785699Y-102007854D01*
X191723393Y-101797655D01*
X191252928Y-101657158D01*
X190764510Y-101707395D01*
X190546607Y-101797655D01*
X190484301Y-102007854D01*
X134254699Y-102007854D01*
X134381699Y-101880854D01*
X134319393Y-101670655D01*
X133848928Y-101530158D01*
X133360510Y-101580395D01*
X133142607Y-101670655D01*
X133080301Y-101880854D01*
X106983600Y-101880854D01*
X106983600Y-97612222D01*
X115697000Y-97612222D01*
X115697000Y-97967778D01*
X115784006Y-98405185D01*
X116031777Y-98776001D01*
X116402593Y-99023772D01*
X116840000Y-99110778D01*
X117277407Y-99023772D01*
X117648223Y-98776001D01*
X117895994Y-98405185D01*
X117983000Y-97967778D01*
X117983000Y-97612222D01*
X118237000Y-97612222D01*
X118237000Y-97967778D01*
X118324006Y-98405185D01*
X118571777Y-98776001D01*
X118942593Y-99023772D01*
X119380000Y-99110778D01*
X119817407Y-99023772D01*
X120188223Y-98776001D01*
X120435994Y-98405185D01*
X120523000Y-97967778D01*
X120523000Y-97612222D01*
X120777000Y-97612222D01*
X120777000Y-97967778D01*
X120864006Y-98405185D01*
X121111777Y-98776001D01*
X121482593Y-99023772D01*
X121920000Y-99110778D01*
X122357407Y-99023772D01*
X122728223Y-98776001D01*
X122975994Y-98405185D01*
X123063000Y-97967778D01*
X123063000Y-97612222D01*
X123317000Y-97612222D01*
X123317000Y-97967778D01*
X123404006Y-98405185D01*
X123651777Y-98776001D01*
X124022593Y-99023772D01*
X124460000Y-99110778D01*
X124897407Y-99023772D01*
X125268223Y-98776001D01*
X125515994Y-98405185D01*
X125603000Y-97967778D01*
X125603000Y-97612222D01*
X125857000Y-97612222D01*
X125857000Y-97967778D01*
X125944006Y-98405185D01*
X126191777Y-98776001D01*
X126562593Y-99023772D01*
X127000000Y-99110778D01*
X127437407Y-99023772D01*
X127808223Y-98776001D01*
X128055994Y-98405185D01*
X128143000Y-97967778D01*
X128143000Y-97612222D01*
X128397000Y-97612222D01*
X128397000Y-97967778D01*
X128484006Y-98405185D01*
X128731777Y-98776001D01*
X129102593Y-99023772D01*
X129540000Y-99110778D01*
X129977407Y-99023772D01*
X130348223Y-98776001D01*
X130595994Y-98405185D01*
X130683000Y-97967778D01*
X130683000Y-97612222D01*
X130937000Y-97612222D01*
X130937000Y-97967778D01*
X131024006Y-98405185D01*
X131271777Y-98776001D01*
X131642593Y-99023772D01*
X132080000Y-99110778D01*
X132517407Y-99023772D01*
X132888223Y-98776001D01*
X133135994Y-98405185D01*
X133223000Y-97967778D01*
X133223000Y-97612222D01*
X133477000Y-97612222D01*
X133477000Y-97967778D01*
X133564006Y-98405185D01*
X133811777Y-98776001D01*
X134182593Y-99023772D01*
X134620000Y-99110778D01*
X135057407Y-99023772D01*
X135428223Y-98776001D01*
X135675994Y-98405185D01*
X135763000Y-97967778D01*
X135763000Y-97612222D01*
X174117000Y-97612222D01*
X174117000Y-97967778D01*
X174204006Y-98405185D01*
X174451777Y-98776001D01*
X174822593Y-99023772D01*
X175260000Y-99110778D01*
X175697407Y-99023772D01*
X176068223Y-98776001D01*
X176315994Y-98405185D01*
X176403000Y-97967778D01*
X176403000Y-97612222D01*
X176657000Y-97612222D01*
X176657000Y-97967778D01*
X176744006Y-98405185D01*
X176991777Y-98776001D01*
X177362593Y-99023772D01*
X177800000Y-99110778D01*
X178237407Y-99023772D01*
X178608223Y-98776001D01*
X178855994Y-98405185D01*
X178943000Y-97967778D01*
X178943000Y-97612222D01*
X179197000Y-97612222D01*
X179197000Y-97967778D01*
X179284006Y-98405185D01*
X179531777Y-98776001D01*
X179902593Y-99023772D01*
X180340000Y-99110778D01*
X180777407Y-99023772D01*
X181148223Y-98776001D01*
X181395994Y-98405185D01*
X181483000Y-97967778D01*
X181483000Y-97612222D01*
X181737000Y-97612222D01*
X181737000Y-97967778D01*
X181824006Y-98405185D01*
X182071777Y-98776001D01*
X182442593Y-99023772D01*
X182880000Y-99110778D01*
X183317407Y-99023772D01*
X183688223Y-98776001D01*
X183935994Y-98405185D01*
X184023000Y-97967778D01*
X184023000Y-97612222D01*
X184277000Y-97612222D01*
X184277000Y-97967778D01*
X184364006Y-98405185D01*
X184611777Y-98776001D01*
X184982593Y-99023772D01*
X185420000Y-99110778D01*
X185857407Y-99023772D01*
X186228223Y-98776001D01*
X186475994Y-98405185D01*
X186563000Y-97967778D01*
X186563000Y-97612222D01*
X186817000Y-97612222D01*
X186817000Y-97967778D01*
X186904006Y-98405185D01*
X187151777Y-98776001D01*
X187522593Y-99023772D01*
X187960000Y-99110778D01*
X188397407Y-99023772D01*
X188768223Y-98776001D01*
X189015994Y-98405185D01*
X189103000Y-97967778D01*
X189103000Y-97612222D01*
X189357000Y-97612222D01*
X189357000Y-97967778D01*
X189444006Y-98405185D01*
X189691777Y-98776001D01*
X190062593Y-99023772D01*
X190500000Y-99110778D01*
X190937407Y-99023772D01*
X191308223Y-98776001D01*
X191555994Y-98405185D01*
X191643000Y-97967778D01*
X191643000Y-97612222D01*
X191897000Y-97612222D01*
X191897000Y-97967778D01*
X191984006Y-98405185D01*
X192231777Y-98776001D01*
X192602593Y-99023772D01*
X193040000Y-99110778D01*
X193477407Y-99023772D01*
X193848223Y-98776001D01*
X194095994Y-98405185D01*
X194183000Y-97967778D01*
X194183000Y-97612222D01*
X194095994Y-97174815D01*
X193848223Y-96803999D01*
X193477407Y-96556228D01*
X193040000Y-96469222D01*
X192602593Y-96556228D01*
X192231777Y-96803999D01*
X191984006Y-97174815D01*
X191897000Y-97612222D01*
X191643000Y-97612222D01*
X191555994Y-97174815D01*
X191308223Y-96803999D01*
X190937407Y-96556228D01*
X190881000Y-96545008D01*
X190881000Y-95094873D01*
X191150000Y-95094873D01*
X191253539Y-95075391D01*
X191348634Y-95014199D01*
X191412429Y-94920832D01*
X191434873Y-94810000D01*
X191434873Y-93310000D01*
X191415391Y-93206461D01*
X191354199Y-93111366D01*
X191260832Y-93047571D01*
X191150000Y-93025127D01*
X189850000Y-93025127D01*
X189746461Y-93044609D01*
X189651366Y-93105801D01*
X189587571Y-93199168D01*
X189565127Y-93310000D01*
X189565127Y-94810000D01*
X189584609Y-94913539D01*
X189645801Y-95008634D01*
X189739168Y-95072429D01*
X189850000Y-95094873D01*
X190119000Y-95094873D01*
X190119000Y-96545008D01*
X190062593Y-96556228D01*
X189691777Y-96803999D01*
X189444006Y-97174815D01*
X189357000Y-97612222D01*
X189103000Y-97612222D01*
X189015994Y-97174815D01*
X188768223Y-96803999D01*
X188397407Y-96556228D01*
X188341000Y-96545008D01*
X188341000Y-95094873D01*
X188610000Y-95094873D01*
X188713539Y-95075391D01*
X188808634Y-95014199D01*
X188872429Y-94920832D01*
X188894873Y-94810000D01*
X188894873Y-93310000D01*
X188875391Y-93206461D01*
X188814199Y-93111366D01*
X188720832Y-93047571D01*
X188610000Y-93025127D01*
X187310000Y-93025127D01*
X187206461Y-93044609D01*
X187111366Y-93105801D01*
X187047571Y-93199168D01*
X187025127Y-93310000D01*
X187025127Y-94810000D01*
X187044609Y-94913539D01*
X187105801Y-95008634D01*
X187199168Y-95072429D01*
X187310000Y-95094873D01*
X187579000Y-95094873D01*
X187579000Y-96545008D01*
X187522593Y-96556228D01*
X187151777Y-96803999D01*
X186904006Y-97174815D01*
X186817000Y-97612222D01*
X186563000Y-97612222D01*
X186475994Y-97174815D01*
X186228223Y-96803999D01*
X185857407Y-96556228D01*
X185801000Y-96545008D01*
X185801000Y-95094873D01*
X186070000Y-95094873D01*
X186173539Y-95075391D01*
X186268634Y-95014199D01*
X186332429Y-94920832D01*
X186354873Y-94810000D01*
X186354873Y-93310000D01*
X186335391Y-93206461D01*
X186274199Y-93111366D01*
X186180832Y-93047571D01*
X186070000Y-93025127D01*
X184770000Y-93025127D01*
X184666461Y-93044609D01*
X184571366Y-93105801D01*
X184507571Y-93199168D01*
X184485127Y-93310000D01*
X184485127Y-94810000D01*
X184504609Y-94913539D01*
X184565801Y-95008634D01*
X184659168Y-95072429D01*
X184770000Y-95094873D01*
X185039000Y-95094873D01*
X185039000Y-96545008D01*
X184982593Y-96556228D01*
X184611777Y-96803999D01*
X184364006Y-97174815D01*
X184277000Y-97612222D01*
X184023000Y-97612222D01*
X183935994Y-97174815D01*
X183688223Y-96803999D01*
X183317407Y-96556228D01*
X183311800Y-96555113D01*
X183311800Y-93269858D01*
X184485127Y-92096530D01*
X184485127Y-92110000D01*
X184504609Y-92213539D01*
X184565801Y-92308634D01*
X184659168Y-92372429D01*
X184770000Y-92394873D01*
X186070000Y-92394873D01*
X186173539Y-92375391D01*
X186268634Y-92314199D01*
X186332429Y-92220832D01*
X186354873Y-92110000D01*
X186354873Y-91791800D01*
X187025127Y-91791800D01*
X187025127Y-92110000D01*
X187044609Y-92213539D01*
X187105801Y-92308634D01*
X187199168Y-92372429D01*
X187310000Y-92394873D01*
X188610000Y-92394873D01*
X188713539Y-92375391D01*
X188808634Y-92314199D01*
X188872429Y-92220832D01*
X188894873Y-92110000D01*
X188894873Y-91791800D01*
X189565127Y-91791800D01*
X189565127Y-92110000D01*
X189584609Y-92213539D01*
X189645801Y-92308634D01*
X189739168Y-92372429D01*
X189850000Y-92394873D01*
X191150000Y-92394873D01*
X191253539Y-92375391D01*
X191348634Y-92314199D01*
X191412429Y-92220832D01*
X191434873Y-92110000D01*
X191434873Y-91744800D01*
X192906366Y-91744800D01*
X192965368Y-91803905D01*
X193178245Y-91892299D01*
X193408744Y-91892500D01*
X193621775Y-91804478D01*
X193784905Y-91641632D01*
X193873299Y-91428755D01*
X193873500Y-91198256D01*
X193785478Y-90985225D01*
X193622632Y-90822095D01*
X193409755Y-90733701D01*
X193179256Y-90733500D01*
X192966225Y-90821522D01*
X192906443Y-90881200D01*
X191434873Y-90881200D01*
X191434873Y-90610000D01*
X191415391Y-90506461D01*
X191354199Y-90411366D01*
X191260832Y-90347571D01*
X191150000Y-90325127D01*
X189850000Y-90325127D01*
X189746461Y-90344609D01*
X189651366Y-90405801D01*
X189587571Y-90499168D01*
X189565127Y-90610000D01*
X189565127Y-90928200D01*
X188894873Y-90928200D01*
X188894873Y-90610000D01*
X188875391Y-90506461D01*
X188814199Y-90411366D01*
X188720832Y-90347571D01*
X188610000Y-90325127D01*
X187310000Y-90325127D01*
X187206461Y-90344609D01*
X187111366Y-90405801D01*
X187047571Y-90499168D01*
X187025127Y-90610000D01*
X187025127Y-90928200D01*
X186354873Y-90928200D01*
X186354873Y-90610000D01*
X186335391Y-90506461D01*
X186274199Y-90411366D01*
X186180832Y-90347571D01*
X186070000Y-90325127D01*
X184770000Y-90325127D01*
X184666461Y-90344609D01*
X184571366Y-90405801D01*
X184507571Y-90499168D01*
X184485127Y-90610000D01*
X184485127Y-90953238D01*
X184473173Y-90955615D01*
X184445757Y-90961069D01*
X184305671Y-91054671D01*
X184305669Y-91054674D01*
X182574671Y-92785671D01*
X182481069Y-92925757D01*
X182448200Y-93091000D01*
X182448200Y-96555113D01*
X182442593Y-96556228D01*
X182071777Y-96803999D01*
X181824006Y-97174815D01*
X181737000Y-97612222D01*
X181483000Y-97612222D01*
X181395994Y-97174815D01*
X181148223Y-96803999D01*
X180777407Y-96556228D01*
X180340000Y-96469222D01*
X179902593Y-96556228D01*
X179531777Y-96803999D01*
X179284006Y-97174815D01*
X179197000Y-97612222D01*
X178943000Y-97612222D01*
X178855994Y-97174815D01*
X178608223Y-96803999D01*
X178237407Y-96556228D01*
X177800000Y-96469222D01*
X177362593Y-96556228D01*
X176991777Y-96803999D01*
X176744006Y-97174815D01*
X176657000Y-97612222D01*
X176403000Y-97612222D01*
X176315994Y-97174815D01*
X176068223Y-96803999D01*
X175697407Y-96556228D01*
X175260000Y-96469222D01*
X174822593Y-96556228D01*
X174451777Y-96803999D01*
X174204006Y-97174815D01*
X174117000Y-97612222D01*
X135763000Y-97612222D01*
X135675994Y-97174815D01*
X135428223Y-96803999D01*
X135057407Y-96556228D01*
X134620000Y-96469222D01*
X134182593Y-96556228D01*
X133811777Y-96803999D01*
X133564006Y-97174815D01*
X133477000Y-97612222D01*
X133223000Y-97612222D01*
X133135994Y-97174815D01*
X132888223Y-96803999D01*
X132517407Y-96556228D01*
X132461000Y-96545008D01*
X132461000Y-95094873D01*
X132730000Y-95094873D01*
X132833539Y-95075391D01*
X132928634Y-95014199D01*
X132992429Y-94920832D01*
X133014873Y-94810000D01*
X133014873Y-93310000D01*
X132995391Y-93206461D01*
X132934199Y-93111366D01*
X132840832Y-93047571D01*
X132730000Y-93025127D01*
X131430000Y-93025127D01*
X131326461Y-93044609D01*
X131231366Y-93105801D01*
X131167571Y-93199168D01*
X131145127Y-93310000D01*
X131145127Y-94810000D01*
X131164609Y-94913539D01*
X131225801Y-95008634D01*
X131319168Y-95072429D01*
X131430000Y-95094873D01*
X131699000Y-95094873D01*
X131699000Y-96545008D01*
X131642593Y-96556228D01*
X131271777Y-96803999D01*
X131024006Y-97174815D01*
X130937000Y-97612222D01*
X130683000Y-97612222D01*
X130595994Y-97174815D01*
X130348223Y-96803999D01*
X129977407Y-96556228D01*
X129921000Y-96545008D01*
X129921000Y-95094873D01*
X130190000Y-95094873D01*
X130293539Y-95075391D01*
X130388634Y-95014199D01*
X130452429Y-94920832D01*
X130474873Y-94810000D01*
X130474873Y-93310000D01*
X130455391Y-93206461D01*
X130394199Y-93111366D01*
X130300832Y-93047571D01*
X130190000Y-93025127D01*
X128890000Y-93025127D01*
X128786461Y-93044609D01*
X128691366Y-93105801D01*
X128627571Y-93199168D01*
X128605127Y-93310000D01*
X128605127Y-94810000D01*
X128624609Y-94913539D01*
X128685801Y-95008634D01*
X128779168Y-95072429D01*
X128890000Y-95094873D01*
X129159000Y-95094873D01*
X129159000Y-96545008D01*
X129102593Y-96556228D01*
X128731777Y-96803999D01*
X128484006Y-97174815D01*
X128397000Y-97612222D01*
X128143000Y-97612222D01*
X128055994Y-97174815D01*
X127808223Y-96803999D01*
X127437407Y-96556228D01*
X127381000Y-96545008D01*
X127381000Y-95094873D01*
X127650000Y-95094873D01*
X127753539Y-95075391D01*
X127848634Y-95014199D01*
X127912429Y-94920832D01*
X127934873Y-94810000D01*
X127934873Y-93310000D01*
X127915391Y-93206461D01*
X127854199Y-93111366D01*
X127760832Y-93047571D01*
X127650000Y-93025127D01*
X126350000Y-93025127D01*
X126246461Y-93044609D01*
X126151366Y-93105801D01*
X126087571Y-93199168D01*
X126065127Y-93310000D01*
X126065127Y-94810000D01*
X126084609Y-94913539D01*
X126145801Y-95008634D01*
X126239168Y-95072429D01*
X126350000Y-95094873D01*
X126619000Y-95094873D01*
X126619000Y-96545008D01*
X126562593Y-96556228D01*
X126191777Y-96803999D01*
X125944006Y-97174815D01*
X125857000Y-97612222D01*
X125603000Y-97612222D01*
X125515994Y-97174815D01*
X125268223Y-96803999D01*
X124897407Y-96556228D01*
X124891800Y-96555113D01*
X124891800Y-92634858D01*
X124914436Y-92612222D01*
X150819000Y-92612222D01*
X150819000Y-92967778D01*
X150906006Y-93405185D01*
X151153777Y-93776001D01*
X151524593Y-94023772D01*
X151962000Y-94110778D01*
X152399407Y-94023772D01*
X152770223Y-93776001D01*
X153017994Y-93405185D01*
X153104995Y-92967802D01*
X153201808Y-92967802D01*
X153077538Y-93193729D01*
X153282148Y-93719716D01*
X153672470Y-94127363D01*
X154101618Y-94333737D01*
X154324200Y-94231950D01*
X154324200Y-92967800D01*
X154304200Y-92967800D01*
X154304200Y-92612200D01*
X154324200Y-92612200D01*
X154324200Y-91348050D01*
X154679800Y-91348050D01*
X154679800Y-92612200D01*
X154699800Y-92612200D01*
X154699800Y-92967800D01*
X154679800Y-92967800D01*
X154679800Y-94231950D01*
X154902382Y-94333737D01*
X155331530Y-94127363D01*
X155721852Y-93719716D01*
X155926462Y-93193729D01*
X155802192Y-92967802D01*
X155899005Y-92967802D01*
X155986006Y-93405185D01*
X156233777Y-93776001D01*
X156604593Y-94023772D01*
X157042000Y-94110778D01*
X157479407Y-94023772D01*
X157850223Y-93776001D01*
X158097994Y-93405185D01*
X158185000Y-92967778D01*
X158185000Y-92612222D01*
X158439000Y-92612222D01*
X158439000Y-92967778D01*
X158526006Y-93405185D01*
X158773777Y-93776001D01*
X159144593Y-94023772D01*
X159582000Y-94110778D01*
X160019407Y-94023772D01*
X160390223Y-93776001D01*
X160637994Y-93405185D01*
X160725000Y-92967778D01*
X160725000Y-92612222D01*
X160637994Y-92174815D01*
X160390223Y-91803999D01*
X160345327Y-91774000D01*
X160973527Y-91774000D01*
X160973527Y-93806000D01*
X160993009Y-93909539D01*
X161054201Y-94004634D01*
X161147568Y-94068429D01*
X161258400Y-94090873D01*
X162985600Y-94090873D01*
X163089139Y-94071391D01*
X163184234Y-94010199D01*
X163248029Y-93916832D01*
X163270473Y-93806000D01*
X163270473Y-91774000D01*
X163250991Y-91670461D01*
X163189799Y-91575366D01*
X163096432Y-91511571D01*
X162985600Y-91489127D01*
X161258400Y-91489127D01*
X161154861Y-91508609D01*
X161059766Y-91569801D01*
X160995971Y-91663168D01*
X160973527Y-91774000D01*
X160345327Y-91774000D01*
X160019407Y-91556228D01*
X159582000Y-91469222D01*
X159144593Y-91556228D01*
X158773777Y-91803999D01*
X158526006Y-92174815D01*
X158439000Y-92612222D01*
X158185000Y-92612222D01*
X158097994Y-92174815D01*
X157850223Y-91803999D01*
X157479407Y-91556228D01*
X157042000Y-91469222D01*
X156604593Y-91556228D01*
X156233777Y-91803999D01*
X155986006Y-92174815D01*
X155899005Y-92612198D01*
X155802192Y-92612198D01*
X155926462Y-92386271D01*
X155721852Y-91860284D01*
X155331530Y-91452637D01*
X154902382Y-91246263D01*
X154679800Y-91348050D01*
X154324200Y-91348050D01*
X154101618Y-91246263D01*
X153672470Y-91452637D01*
X153282148Y-91860284D01*
X153077538Y-92386271D01*
X153201808Y-92612198D01*
X153104995Y-92612198D01*
X153017994Y-92174815D01*
X152770223Y-91803999D01*
X152399407Y-91556228D01*
X151962000Y-91469222D01*
X151524593Y-91556228D01*
X151153777Y-91803999D01*
X150906006Y-92174815D01*
X150819000Y-92612222D01*
X124914436Y-92612222D01*
X125734858Y-91791800D01*
X126065127Y-91791800D01*
X126065127Y-92110000D01*
X126084609Y-92213539D01*
X126145801Y-92308634D01*
X126239168Y-92372429D01*
X126350000Y-92394873D01*
X127650000Y-92394873D01*
X127753539Y-92375391D01*
X127848634Y-92314199D01*
X127912429Y-92220832D01*
X127934873Y-92110000D01*
X127934873Y-91791800D01*
X128605127Y-91791800D01*
X128605127Y-92110000D01*
X128624609Y-92213539D01*
X128685801Y-92308634D01*
X128779168Y-92372429D01*
X128890000Y-92394873D01*
X130190000Y-92394873D01*
X130293539Y-92375391D01*
X130388634Y-92314199D01*
X130452429Y-92220832D01*
X130474873Y-92110000D01*
X130474873Y-91791800D01*
X131145127Y-91791800D01*
X131145127Y-92110000D01*
X131164609Y-92213539D01*
X131225801Y-92308634D01*
X131319168Y-92372429D01*
X131430000Y-92394873D01*
X132730000Y-92394873D01*
X132833539Y-92375391D01*
X132928634Y-92314199D01*
X132992429Y-92220832D01*
X133014873Y-92110000D01*
X133014873Y-91791800D01*
X134787284Y-91791800D01*
X134799368Y-91803905D01*
X135012245Y-91892299D01*
X135242744Y-91892500D01*
X135455775Y-91804478D01*
X135618905Y-91641632D01*
X135707299Y-91428755D01*
X135707500Y-91198256D01*
X135619478Y-90985225D01*
X135456632Y-90822095D01*
X135243755Y-90733701D01*
X135013256Y-90733500D01*
X134800225Y-90821522D01*
X134693361Y-90928200D01*
X133014873Y-90928200D01*
X133014873Y-90610000D01*
X132995391Y-90506461D01*
X132934199Y-90411366D01*
X132840832Y-90347571D01*
X132730000Y-90325127D01*
X131430000Y-90325127D01*
X131326461Y-90344609D01*
X131231366Y-90405801D01*
X131167571Y-90499168D01*
X131145127Y-90610000D01*
X131145127Y-90928200D01*
X130474873Y-90928200D01*
X130474873Y-90610000D01*
X130455391Y-90506461D01*
X130394199Y-90411366D01*
X130300832Y-90347571D01*
X130190000Y-90325127D01*
X128890000Y-90325127D01*
X128786461Y-90344609D01*
X128691366Y-90405801D01*
X128627571Y-90499168D01*
X128605127Y-90610000D01*
X128605127Y-90928200D01*
X127934873Y-90928200D01*
X127934873Y-90610000D01*
X127915391Y-90506461D01*
X127854199Y-90411366D01*
X127760832Y-90347571D01*
X127650000Y-90325127D01*
X126350000Y-90325127D01*
X126246461Y-90344609D01*
X126151366Y-90405801D01*
X126087571Y-90499168D01*
X126065127Y-90610000D01*
X126065127Y-90928200D01*
X125556000Y-90928200D01*
X125390757Y-90961069D01*
X125321012Y-91007671D01*
X125250671Y-91054671D01*
X124154671Y-92150671D01*
X124061069Y-92290757D01*
X124028200Y-92456000D01*
X124028200Y-96555113D01*
X124022593Y-96556228D01*
X123651777Y-96803999D01*
X123404006Y-97174815D01*
X123317000Y-97612222D01*
X123063000Y-97612222D01*
X122975994Y-97174815D01*
X122728223Y-96803999D01*
X122357407Y-96556228D01*
X121920000Y-96469222D01*
X121482593Y-96556228D01*
X121111777Y-96803999D01*
X120864006Y-97174815D01*
X120777000Y-97612222D01*
X120523000Y-97612222D01*
X120435994Y-97174815D01*
X120188223Y-96803999D01*
X119817407Y-96556228D01*
X119380000Y-96469222D01*
X118942593Y-96556228D01*
X118571777Y-96803999D01*
X118324006Y-97174815D01*
X118237000Y-97612222D01*
X117983000Y-97612222D01*
X117895994Y-97174815D01*
X117648223Y-96803999D01*
X117277407Y-96556228D01*
X116840000Y-96469222D01*
X116402593Y-96556228D01*
X116031777Y-96803999D01*
X115784006Y-97174815D01*
X115697000Y-97612222D01*
X106983600Y-97612222D01*
X106983600Y-83807744D01*
X116260500Y-83807744D01*
X116348522Y-84020775D01*
X116511368Y-84183905D01*
X116724245Y-84272299D01*
X116954744Y-84272500D01*
X117167775Y-84184478D01*
X117278446Y-84074000D01*
X117983000Y-84074000D01*
X118128803Y-84044998D01*
X118252408Y-83962408D01*
X119360816Y-82854000D01*
X175321527Y-82854000D01*
X175321527Y-84886000D01*
X175341009Y-84989539D01*
X175402201Y-85084634D01*
X175495568Y-85148429D01*
X175606400Y-85170873D01*
X177333600Y-85170873D01*
X177437139Y-85151391D01*
X177532234Y-85090199D01*
X177596029Y-84996832D01*
X177618473Y-84886000D01*
X177618473Y-84358394D01*
X177790148Y-84799716D01*
X178180470Y-85207363D01*
X178609618Y-85413737D01*
X178832200Y-85311950D01*
X178832200Y-84047800D01*
X178812200Y-84047800D01*
X178812200Y-83692200D01*
X178832200Y-83692200D01*
X178832200Y-82428050D01*
X179187800Y-82428050D01*
X179187800Y-83692200D01*
X179207800Y-83692200D01*
X179207800Y-84047800D01*
X179187800Y-84047800D01*
X179187800Y-85311950D01*
X179410382Y-85413737D01*
X179839530Y-85207363D01*
X180229852Y-84799716D01*
X180434462Y-84273729D01*
X180310192Y-84047802D01*
X180407005Y-84047802D01*
X180494006Y-84485185D01*
X180741777Y-84856001D01*
X181112593Y-85103772D01*
X181550000Y-85190778D01*
X181987407Y-85103772D01*
X182358223Y-84856001D01*
X182605994Y-84485185D01*
X182693000Y-84047778D01*
X182693000Y-83692222D01*
X182947000Y-83692222D01*
X182947000Y-84047778D01*
X183034006Y-84485185D01*
X183281777Y-84856001D01*
X183652593Y-85103772D01*
X184090000Y-85190778D01*
X184527407Y-85103772D01*
X184898223Y-84856001D01*
X185145994Y-84485185D01*
X185233000Y-84047778D01*
X185233000Y-83692222D01*
X185487000Y-83692222D01*
X185487000Y-84047778D01*
X185574006Y-84485185D01*
X185821777Y-84856001D01*
X186192593Y-85103772D01*
X186630000Y-85190778D01*
X187067407Y-85103772D01*
X187438223Y-84856001D01*
X187685994Y-84485185D01*
X187773000Y-84047778D01*
X187773000Y-83692222D01*
X188027000Y-83692222D01*
X188027000Y-84047778D01*
X188114006Y-84485185D01*
X188361777Y-84856001D01*
X188732593Y-85103772D01*
X189170000Y-85190778D01*
X189607407Y-85103772D01*
X189978223Y-84856001D01*
X190225994Y-84485185D01*
X190313000Y-84047778D01*
X190313000Y-83692222D01*
X190567000Y-83692222D01*
X190567000Y-84047778D01*
X190654006Y-84485185D01*
X190901777Y-84856001D01*
X191272593Y-85103772D01*
X191710000Y-85190778D01*
X192147407Y-85103772D01*
X192518223Y-84856001D01*
X192765994Y-84485185D01*
X192853000Y-84047778D01*
X192853000Y-83692222D01*
X193107000Y-83692222D01*
X193107000Y-84047778D01*
X193194006Y-84485185D01*
X193441777Y-84856001D01*
X193812593Y-85103772D01*
X194250000Y-85190778D01*
X194687407Y-85103772D01*
X195058223Y-84856001D01*
X195305994Y-84485185D01*
X195393000Y-84047778D01*
X195393000Y-83692222D01*
X195305994Y-83254815D01*
X195058223Y-82883999D01*
X194687407Y-82636228D01*
X194250000Y-82549222D01*
X193812593Y-82636228D01*
X193441777Y-82883999D01*
X193194006Y-83254815D01*
X193107000Y-83692222D01*
X192853000Y-83692222D01*
X192765994Y-83254815D01*
X192518223Y-82883999D01*
X192147407Y-82636228D01*
X191710000Y-82549222D01*
X191272593Y-82636228D01*
X190901777Y-82883999D01*
X190654006Y-83254815D01*
X190567000Y-83692222D01*
X190313000Y-83692222D01*
X190225994Y-83254815D01*
X189978223Y-82883999D01*
X189607407Y-82636228D01*
X189170000Y-82549222D01*
X188732593Y-82636228D01*
X188361777Y-82883999D01*
X188114006Y-83254815D01*
X188027000Y-83692222D01*
X187773000Y-83692222D01*
X187685994Y-83254815D01*
X187438223Y-82883999D01*
X187067407Y-82636228D01*
X186630000Y-82549222D01*
X186192593Y-82636228D01*
X185821777Y-82883999D01*
X185574006Y-83254815D01*
X185487000Y-83692222D01*
X185233000Y-83692222D01*
X185145994Y-83254815D01*
X184898223Y-82883999D01*
X184527407Y-82636228D01*
X184090000Y-82549222D01*
X183652593Y-82636228D01*
X183281777Y-82883999D01*
X183034006Y-83254815D01*
X182947000Y-83692222D01*
X182693000Y-83692222D01*
X182605994Y-83254815D01*
X182358223Y-82883999D01*
X181987407Y-82636228D01*
X181550000Y-82549222D01*
X181112593Y-82636228D01*
X180741777Y-82883999D01*
X180494006Y-83254815D01*
X180407005Y-83692198D01*
X180310192Y-83692198D01*
X180434462Y-83466271D01*
X180229852Y-82940284D01*
X179839530Y-82532637D01*
X179410382Y-82326263D01*
X179187800Y-82428050D01*
X178832200Y-82428050D01*
X178609618Y-82326263D01*
X178180470Y-82532637D01*
X177790148Y-82940284D01*
X177618473Y-83381606D01*
X177618473Y-82854000D01*
X177598991Y-82750461D01*
X177537799Y-82655366D01*
X177444432Y-82591571D01*
X177333600Y-82569127D01*
X175606400Y-82569127D01*
X175502861Y-82588609D01*
X175407766Y-82649801D01*
X175343971Y-82743168D01*
X175321527Y-82854000D01*
X119360816Y-82854000D01*
X120609451Y-81605365D01*
X120764744Y-81605500D01*
X120977775Y-81517478D01*
X121140905Y-81354632D01*
X121229299Y-81141755D01*
X121229500Y-80911256D01*
X121141478Y-80698225D01*
X120978632Y-80535095D01*
X120765755Y-80446701D01*
X120535256Y-80446500D01*
X120322225Y-80534522D01*
X120159095Y-80697368D01*
X120070701Y-80910245D01*
X120070565Y-81066620D01*
X117825184Y-83312000D01*
X117278346Y-83312000D01*
X117168632Y-83202095D01*
X116955755Y-83113701D01*
X116725256Y-83113500D01*
X116512225Y-83201522D01*
X116349095Y-83364368D01*
X116260701Y-83577245D01*
X116260500Y-83807744D01*
X106983600Y-83807744D01*
X106983600Y-75544568D01*
X142076396Y-75544568D01*
X142255570Y-75978204D01*
X142587051Y-76310264D01*
X143020374Y-76490195D01*
X143489568Y-76490604D01*
X143923204Y-76311430D01*
X144255264Y-75979949D01*
X144435195Y-75546626D01*
X144435196Y-75544568D01*
X157316396Y-75544568D01*
X157495570Y-75978204D01*
X157827051Y-76310264D01*
X158260374Y-76490195D01*
X158729568Y-76490604D01*
X159163204Y-76311430D01*
X159495264Y-75979949D01*
X159675195Y-75546626D01*
X159675604Y-75077432D01*
X159496430Y-74643796D01*
X159164949Y-74311736D01*
X158731626Y-74131805D01*
X158262432Y-74131396D01*
X157828796Y-74310570D01*
X157496736Y-74642051D01*
X157316805Y-75075374D01*
X157316396Y-75544568D01*
X144435196Y-75544568D01*
X144435604Y-75077432D01*
X144256430Y-74643796D01*
X143924949Y-74311736D01*
X143491626Y-74131805D01*
X143022432Y-74131396D01*
X142588796Y-74310570D01*
X142256736Y-74642051D01*
X142076805Y-75075374D01*
X142076396Y-75544568D01*
X106983600Y-75544568D01*
X106983600Y-73004568D01*
X142076396Y-73004568D01*
X142255570Y-73438204D01*
X142587051Y-73770264D01*
X143020374Y-73950195D01*
X143489568Y-73950604D01*
X143923204Y-73771430D01*
X144255264Y-73439949D01*
X144435195Y-73006626D01*
X144435196Y-73004568D01*
X157316396Y-73004568D01*
X157495570Y-73438204D01*
X157827051Y-73770264D01*
X158260374Y-73950195D01*
X158729568Y-73950604D01*
X159163204Y-73771430D01*
X159495264Y-73439949D01*
X159675195Y-73006626D01*
X159675604Y-72537432D01*
X159496430Y-72103796D01*
X159164949Y-71771736D01*
X158731626Y-71591805D01*
X158262432Y-71591396D01*
X157828796Y-71770570D01*
X157496736Y-72102051D01*
X157316805Y-72535374D01*
X157316396Y-73004568D01*
X144435196Y-73004568D01*
X144435604Y-72537432D01*
X144256430Y-72103796D01*
X143924949Y-71771736D01*
X143491626Y-71591805D01*
X143022432Y-71591396D01*
X142588796Y-71770570D01*
X142256736Y-72102051D01*
X142076805Y-72535374D01*
X142076396Y-73004568D01*
X106983600Y-73004568D01*
X106983600Y-70464568D01*
X142076396Y-70464568D01*
X142255570Y-70898204D01*
X142587051Y-71230264D01*
X143020374Y-71410195D01*
X143489568Y-71410604D01*
X143923204Y-71231430D01*
X144255264Y-70899949D01*
X144435195Y-70466626D01*
X144435196Y-70464568D01*
X157316396Y-70464568D01*
X157495570Y-70898204D01*
X157827051Y-71230264D01*
X158260374Y-71410195D01*
X158729568Y-71410604D01*
X159163204Y-71231430D01*
X159495264Y-70899949D01*
X159675195Y-70466626D01*
X159675300Y-70345744D01*
X169346500Y-70345744D01*
X169434522Y-70558775D01*
X169597368Y-70721905D01*
X169810245Y-70810299D01*
X169966620Y-70810435D01*
X171053590Y-71897405D01*
X171053592Y-71897408D01*
X171127688Y-71946917D01*
X171177197Y-71979998D01*
X171323000Y-72009000D01*
X172662654Y-72009000D01*
X172772368Y-72118905D01*
X172985245Y-72207299D01*
X173215744Y-72207500D01*
X173428775Y-72119478D01*
X173591905Y-71956632D01*
X173680299Y-71743755D01*
X173680500Y-71513256D01*
X173592478Y-71300225D01*
X173429632Y-71137095D01*
X173216755Y-71048701D01*
X172986256Y-71048500D01*
X172773225Y-71136522D01*
X172662554Y-71247000D01*
X171480815Y-71247000D01*
X170505365Y-70271549D01*
X170505500Y-70116256D01*
X170442897Y-69964744D01*
X172648500Y-69964744D01*
X172736522Y-70177775D01*
X172899368Y-70340905D01*
X173112245Y-70429299D01*
X173342744Y-70429500D01*
X173555775Y-70341478D01*
X173718905Y-70178632D01*
X173807299Y-69965755D01*
X173807435Y-69809381D01*
X176291405Y-67325410D01*
X176291408Y-67325408D01*
X176373998Y-67201802D01*
X176388768Y-67127553D01*
X176512905Y-67003632D01*
X176601299Y-66790755D01*
X176601500Y-66560256D01*
X176513478Y-66347225D01*
X176350632Y-66184095D01*
X176137755Y-66095701D01*
X175907256Y-66095500D01*
X175694225Y-66183522D01*
X175531095Y-66346368D01*
X175442701Y-66559245D01*
X175442500Y-66789744D01*
X175530522Y-67002775D01*
X175533463Y-67005722D01*
X173268549Y-69270635D01*
X173113256Y-69270500D01*
X172900225Y-69358522D01*
X172737095Y-69521368D01*
X172648701Y-69734245D01*
X172648500Y-69964744D01*
X170442897Y-69964744D01*
X170417478Y-69903225D01*
X170254632Y-69740095D01*
X170041755Y-69651701D01*
X169811256Y-69651500D01*
X169598225Y-69739522D01*
X169435095Y-69902368D01*
X169346701Y-70115245D01*
X169346500Y-70345744D01*
X159675300Y-70345744D01*
X159675604Y-69997432D01*
X159496430Y-69563796D01*
X159164949Y-69231736D01*
X158731626Y-69051805D01*
X158262432Y-69051396D01*
X157828796Y-69230570D01*
X157496736Y-69562051D01*
X157316805Y-69995374D01*
X157316396Y-70464568D01*
X144435196Y-70464568D01*
X144435604Y-69997432D01*
X144256430Y-69563796D01*
X144014625Y-69321568D01*
X154395396Y-69321568D01*
X154574570Y-69755204D01*
X154906051Y-70087264D01*
X155339374Y-70267195D01*
X155808568Y-70267604D01*
X156242204Y-70088430D01*
X156574264Y-69756949D01*
X156754195Y-69323626D01*
X156754604Y-68854432D01*
X156575430Y-68420796D01*
X156243949Y-68088736D01*
X155848588Y-67924568D01*
X157316396Y-67924568D01*
X157495570Y-68358204D01*
X157827051Y-68690264D01*
X158260374Y-68870195D01*
X158729568Y-68870604D01*
X159163204Y-68691430D01*
X159495264Y-68359949D01*
X159675195Y-67926626D01*
X159675604Y-67457432D01*
X159496430Y-67023796D01*
X159164949Y-66691736D01*
X158731626Y-66511805D01*
X158262432Y-66511396D01*
X157828796Y-66690570D01*
X157496736Y-67022051D01*
X157316805Y-67455374D01*
X157316396Y-67924568D01*
X155848588Y-67924568D01*
X155810626Y-67908805D01*
X155341432Y-67908396D01*
X154907796Y-68087570D01*
X154575736Y-68419051D01*
X154395805Y-68852374D01*
X154395396Y-69321568D01*
X144014625Y-69321568D01*
X143924949Y-69231736D01*
X143491626Y-69051805D01*
X143022432Y-69051396D01*
X142588796Y-69230570D01*
X142256736Y-69562051D01*
X142076805Y-69995374D01*
X142076396Y-70464568D01*
X106983600Y-70464568D01*
X106983600Y-67924568D01*
X142076396Y-67924568D01*
X142255570Y-68358204D01*
X142587051Y-68690264D01*
X143020374Y-68870195D01*
X143489568Y-68870604D01*
X143923204Y-68691430D01*
X144255264Y-68359949D01*
X144435195Y-67926626D01*
X144435604Y-67457432D01*
X144256430Y-67023796D01*
X144014625Y-66781568D01*
X154395396Y-66781568D01*
X154574570Y-67215204D01*
X154906051Y-67547264D01*
X155339374Y-67727195D01*
X155808568Y-67727604D01*
X156242204Y-67548430D01*
X156574264Y-67216949D01*
X156754195Y-66783626D01*
X156754604Y-66314432D01*
X156575430Y-65880796D01*
X156243949Y-65548736D01*
X155848588Y-65384568D01*
X157316396Y-65384568D01*
X157495570Y-65818204D01*
X157827051Y-66150264D01*
X158260374Y-66330195D01*
X158729568Y-66330604D01*
X159163204Y-66151430D01*
X159495264Y-65819949D01*
X159675195Y-65386626D01*
X159675604Y-64917432D01*
X159496430Y-64483796D01*
X159164949Y-64151736D01*
X158731626Y-63971805D01*
X158262432Y-63971396D01*
X157828796Y-64150570D01*
X157496736Y-64482051D01*
X157316805Y-64915374D01*
X157316396Y-65384568D01*
X155848588Y-65384568D01*
X155810626Y-65368805D01*
X155341432Y-65368396D01*
X154907796Y-65547570D01*
X154575736Y-65879051D01*
X154395805Y-66312374D01*
X154395396Y-66781568D01*
X144014625Y-66781568D01*
X143924949Y-66691736D01*
X143491626Y-66511805D01*
X143022432Y-66511396D01*
X142588796Y-66690570D01*
X142256736Y-67022051D01*
X142076805Y-67455374D01*
X142076396Y-67924568D01*
X106983600Y-67924568D01*
X106983600Y-65384568D01*
X142076396Y-65384568D01*
X142255570Y-65818204D01*
X142587051Y-66150264D01*
X143020374Y-66330195D01*
X143489568Y-66330604D01*
X143923204Y-66151430D01*
X144255264Y-65819949D01*
X144435195Y-65386626D01*
X144435604Y-64917432D01*
X144256430Y-64483796D01*
X143924949Y-64151736D01*
X143491626Y-63971805D01*
X143022432Y-63971396D01*
X142588796Y-64150570D01*
X142256736Y-64482051D01*
X142076805Y-64915374D01*
X142076396Y-65384568D01*
X106983600Y-65384568D01*
X106983600Y-62844568D01*
X142076396Y-62844568D01*
X142255570Y-63278204D01*
X142587051Y-63610264D01*
X143020374Y-63790195D01*
X143489568Y-63790604D01*
X143923204Y-63611430D01*
X144255264Y-63279949D01*
X144435195Y-62846626D01*
X144435196Y-62844568D01*
X157316396Y-62844568D01*
X157495570Y-63278204D01*
X157827051Y-63610264D01*
X158260374Y-63790195D01*
X158729568Y-63790604D01*
X159163204Y-63611430D01*
X159495264Y-63279949D01*
X159675195Y-62846626D01*
X159675476Y-62524000D01*
X175321527Y-62524000D01*
X175321527Y-64556000D01*
X175341009Y-64659539D01*
X175402201Y-64754634D01*
X175495568Y-64818429D01*
X175606400Y-64840873D01*
X177333600Y-64840873D01*
X177437139Y-64821391D01*
X177532234Y-64760199D01*
X177596029Y-64666832D01*
X177618473Y-64556000D01*
X177618473Y-63362222D01*
X177867000Y-63362222D01*
X177867000Y-63717778D01*
X177954006Y-64155185D01*
X178201777Y-64526001D01*
X178572593Y-64773772D01*
X179010000Y-64860778D01*
X179447407Y-64773772D01*
X179818223Y-64526001D01*
X180065994Y-64155185D01*
X180153000Y-63717778D01*
X180153000Y-63362222D01*
X180407000Y-63362222D01*
X180407000Y-63717778D01*
X180494006Y-64155185D01*
X180741777Y-64526001D01*
X181112593Y-64773772D01*
X181550000Y-64860778D01*
X181987407Y-64773772D01*
X182358223Y-64526001D01*
X182605994Y-64155185D01*
X182693000Y-63717778D01*
X182693000Y-63362222D01*
X182947000Y-63362222D01*
X182947000Y-63717778D01*
X183034006Y-64155185D01*
X183281777Y-64526001D01*
X183652593Y-64773772D01*
X184090000Y-64860778D01*
X184527407Y-64773772D01*
X184898223Y-64526001D01*
X185145994Y-64155185D01*
X185233000Y-63717778D01*
X185233000Y-63362222D01*
X185487000Y-63362222D01*
X185487000Y-63717778D01*
X185574006Y-64155185D01*
X185821777Y-64526001D01*
X186192593Y-64773772D01*
X186630000Y-64860778D01*
X187067407Y-64773772D01*
X187438223Y-64526001D01*
X187685994Y-64155185D01*
X187773000Y-63717778D01*
X187773000Y-63362222D01*
X188027000Y-63362222D01*
X188027000Y-63717778D01*
X188114006Y-64155185D01*
X188361777Y-64526001D01*
X188732593Y-64773772D01*
X189170000Y-64860778D01*
X189607407Y-64773772D01*
X189978223Y-64526001D01*
X190225994Y-64155185D01*
X190313000Y-63717778D01*
X190313000Y-63362222D01*
X190567000Y-63362222D01*
X190567000Y-63717778D01*
X190654006Y-64155185D01*
X190901777Y-64526001D01*
X191272593Y-64773772D01*
X191710000Y-64860778D01*
X192147407Y-64773772D01*
X192518223Y-64526001D01*
X192765994Y-64155185D01*
X192852995Y-63717802D01*
X192949808Y-63717802D01*
X192825538Y-63943729D01*
X193030148Y-64469716D01*
X193420470Y-64877363D01*
X193849618Y-65083737D01*
X194072200Y-64981950D01*
X194072200Y-63717800D01*
X194427800Y-63717800D01*
X194427800Y-64981950D01*
X194650382Y-65083737D01*
X195079530Y-64877363D01*
X195469852Y-64469716D01*
X195674462Y-63943729D01*
X195550191Y-63717800D01*
X194427800Y-63717800D01*
X194072200Y-63717800D01*
X194052200Y-63717800D01*
X194052200Y-63362200D01*
X194072200Y-63362200D01*
X194072200Y-62098050D01*
X194427800Y-62098050D01*
X194427800Y-63362200D01*
X195550191Y-63362200D01*
X195674462Y-63136271D01*
X195469852Y-62610284D01*
X195079530Y-62202637D01*
X194650382Y-61996263D01*
X194427800Y-62098050D01*
X194072200Y-62098050D01*
X193849618Y-61996263D01*
X193420470Y-62202637D01*
X193030148Y-62610284D01*
X192825538Y-63136271D01*
X192949808Y-63362198D01*
X192852995Y-63362198D01*
X192765994Y-62924815D01*
X192518223Y-62553999D01*
X192147407Y-62306228D01*
X191710000Y-62219222D01*
X191272593Y-62306228D01*
X190901777Y-62553999D01*
X190654006Y-62924815D01*
X190567000Y-63362222D01*
X190313000Y-63362222D01*
X190225994Y-62924815D01*
X189978223Y-62553999D01*
X189607407Y-62306228D01*
X189170000Y-62219222D01*
X188732593Y-62306228D01*
X188361777Y-62553999D01*
X188114006Y-62924815D01*
X188027000Y-63362222D01*
X187773000Y-63362222D01*
X187685994Y-62924815D01*
X187438223Y-62553999D01*
X187067407Y-62306228D01*
X186630000Y-62219222D01*
X186192593Y-62306228D01*
X185821777Y-62553999D01*
X185574006Y-62924815D01*
X185487000Y-63362222D01*
X185233000Y-63362222D01*
X185145994Y-62924815D01*
X184898223Y-62553999D01*
X184527407Y-62306228D01*
X184090000Y-62219222D01*
X183652593Y-62306228D01*
X183281777Y-62553999D01*
X183034006Y-62924815D01*
X182947000Y-63362222D01*
X182693000Y-63362222D01*
X182605994Y-62924815D01*
X182358223Y-62553999D01*
X181987407Y-62306228D01*
X181550000Y-62219222D01*
X181112593Y-62306228D01*
X180741777Y-62553999D01*
X180494006Y-62924815D01*
X180407000Y-63362222D01*
X180153000Y-63362222D01*
X180065994Y-62924815D01*
X179818223Y-62553999D01*
X179447407Y-62306228D01*
X179010000Y-62219222D01*
X178572593Y-62306228D01*
X178201777Y-62553999D01*
X177954006Y-62924815D01*
X177867000Y-63362222D01*
X177618473Y-63362222D01*
X177618473Y-62524000D01*
X177598991Y-62420461D01*
X177537799Y-62325366D01*
X177444432Y-62261571D01*
X177333600Y-62239127D01*
X175606400Y-62239127D01*
X175502861Y-62258609D01*
X175407766Y-62319801D01*
X175343971Y-62413168D01*
X175321527Y-62524000D01*
X159675476Y-62524000D01*
X159675604Y-62377432D01*
X159496430Y-61943796D01*
X159164949Y-61611736D01*
X158731626Y-61431805D01*
X158262432Y-61431396D01*
X157828796Y-61610570D01*
X157496736Y-61942051D01*
X157316805Y-62375374D01*
X157316396Y-62844568D01*
X144435196Y-62844568D01*
X144435604Y-62377432D01*
X144256430Y-61943796D01*
X143924949Y-61611736D01*
X143491626Y-61431805D01*
X143022432Y-61431396D01*
X142588796Y-61610570D01*
X142256736Y-61942051D01*
X142076805Y-62375374D01*
X142076396Y-62844568D01*
X106983600Y-62844568D01*
X106983600Y-58055510D01*
X109457097Y-58055510D01*
X109457097Y-60054490D01*
X109476579Y-60158029D01*
X109537771Y-60253124D01*
X109631138Y-60316919D01*
X109741970Y-60339363D01*
X111740950Y-60339363D01*
X111844489Y-60319881D01*
X111868286Y-60304568D01*
X142076396Y-60304568D01*
X142255570Y-60738204D01*
X142587051Y-61070264D01*
X143020374Y-61250195D01*
X143489568Y-61250604D01*
X143923204Y-61071430D01*
X144255264Y-60739949D01*
X144435195Y-60306626D01*
X144435196Y-60304568D01*
X157316396Y-60304568D01*
X157495570Y-60738204D01*
X157827051Y-61070264D01*
X158260374Y-61250195D01*
X158729568Y-61250604D01*
X159163204Y-61071430D01*
X159495264Y-60739949D01*
X159675195Y-60306626D01*
X159675604Y-59837432D01*
X159496430Y-59403796D01*
X159164949Y-59071736D01*
X158731626Y-58891805D01*
X158262432Y-58891396D01*
X157828796Y-59070570D01*
X157496736Y-59402051D01*
X157316805Y-59835374D01*
X157316396Y-60304568D01*
X144435196Y-60304568D01*
X144435604Y-59837432D01*
X144256430Y-59403796D01*
X143924949Y-59071736D01*
X143529588Y-58907568D01*
X154395396Y-58907568D01*
X154574570Y-59341204D01*
X154906051Y-59673264D01*
X155339374Y-59853195D01*
X155808568Y-59853604D01*
X156242204Y-59674430D01*
X156574264Y-59342949D01*
X156754195Y-58909626D01*
X156754604Y-58440432D01*
X156575430Y-58006796D01*
X156333625Y-57764568D01*
X157316396Y-57764568D01*
X157495570Y-58198204D01*
X157827051Y-58530264D01*
X158260374Y-58710195D01*
X158729568Y-58710604D01*
X159163204Y-58531430D01*
X159495264Y-58199949D01*
X159675195Y-57766626D01*
X159675604Y-57297432D01*
X159496430Y-56863796D01*
X159164949Y-56531736D01*
X158731626Y-56351805D01*
X158262432Y-56351396D01*
X157828796Y-56530570D01*
X157496736Y-56862051D01*
X157316805Y-57295374D01*
X157316396Y-57764568D01*
X156333625Y-57764568D01*
X156243949Y-57674736D01*
X155810626Y-57494805D01*
X155341432Y-57494396D01*
X154907796Y-57673570D01*
X154575736Y-58005051D01*
X154395805Y-58438374D01*
X154395396Y-58907568D01*
X143529588Y-58907568D01*
X143491626Y-58891805D01*
X143022432Y-58891396D01*
X142588796Y-59070570D01*
X142256736Y-59402051D01*
X142076805Y-59835374D01*
X142076396Y-60304568D01*
X111868286Y-60304568D01*
X111939584Y-60258689D01*
X112003379Y-60165322D01*
X112025823Y-60054490D01*
X112025823Y-58055510D01*
X112006341Y-57951971D01*
X111945149Y-57856876D01*
X111851782Y-57793081D01*
X111740950Y-57770637D01*
X109741970Y-57770637D01*
X109638431Y-57790119D01*
X109543336Y-57851311D01*
X109479541Y-57944678D01*
X109457097Y-58055510D01*
X106983600Y-58055510D01*
X106983600Y-57764568D01*
X142076396Y-57764568D01*
X142255570Y-58198204D01*
X142587051Y-58530264D01*
X143020374Y-58710195D01*
X143489568Y-58710604D01*
X143923204Y-58531430D01*
X144255264Y-58199949D01*
X144435195Y-57766626D01*
X144435604Y-57297432D01*
X144256430Y-56863796D01*
X143924949Y-56531736D01*
X143694403Y-56436005D01*
X143859624Y-56367568D01*
X154395396Y-56367568D01*
X154574570Y-56801204D01*
X154906051Y-57133264D01*
X155339374Y-57313195D01*
X155808568Y-57313604D01*
X156242204Y-57134430D01*
X156574264Y-56802949D01*
X156754195Y-56369626D01*
X156754604Y-55900432D01*
X156575430Y-55466796D01*
X156333625Y-55224568D01*
X157316396Y-55224568D01*
X157495570Y-55658204D01*
X157827051Y-55990264D01*
X158260374Y-56170195D01*
X158729568Y-56170604D01*
X159163204Y-55991430D01*
X159495264Y-55659949D01*
X159675195Y-55226626D01*
X159675604Y-54757432D01*
X159496430Y-54323796D01*
X159164949Y-53991736D01*
X158731626Y-53811805D01*
X158262432Y-53811396D01*
X157828796Y-53990570D01*
X157496736Y-54322051D01*
X157316805Y-54755374D01*
X157316396Y-55224568D01*
X156333625Y-55224568D01*
X156243949Y-55134736D01*
X155810626Y-54954805D01*
X155341432Y-54954396D01*
X154907796Y-55133570D01*
X154575736Y-55465051D01*
X154395805Y-55898374D01*
X154395396Y-56367568D01*
X143859624Y-56367568D01*
X143995478Y-56311296D01*
X144088842Y-56075290D01*
X143256000Y-55242447D01*
X142423158Y-56075290D01*
X142516522Y-56311296D01*
X142854034Y-56420977D01*
X142588796Y-56530570D01*
X142256736Y-56862051D01*
X142076805Y-57295374D01*
X142076396Y-57764568D01*
X106983600Y-57764568D01*
X106983600Y-55229935D01*
X116141291Y-55229935D01*
X116324582Y-55673535D01*
X116663680Y-56013225D01*
X117106959Y-56197290D01*
X117586935Y-56197709D01*
X118030535Y-56014418D01*
X118370225Y-55675320D01*
X118554290Y-55232041D01*
X118554655Y-54813066D01*
X141753220Y-54813066D01*
X141799520Y-55401700D01*
X141935704Y-55730478D01*
X142171710Y-55823842D01*
X143004553Y-54991000D01*
X143507447Y-54991000D01*
X144340290Y-55823842D01*
X144576296Y-55730478D01*
X144758780Y-55168934D01*
X144712480Y-54580300D01*
X144576296Y-54251522D01*
X144340290Y-54158158D01*
X143507447Y-54991000D01*
X143004553Y-54991000D01*
X142171710Y-54158158D01*
X141935704Y-54251522D01*
X141753220Y-54813066D01*
X118554655Y-54813066D01*
X118554709Y-54752065D01*
X118371418Y-54308465D01*
X118032320Y-53968775D01*
X117589041Y-53784710D01*
X117109065Y-53784291D01*
X116665465Y-53967582D01*
X116325775Y-54306680D01*
X116141710Y-54749959D01*
X116141291Y-55229935D01*
X106983600Y-55229935D01*
X106983600Y-52689935D01*
X116141291Y-52689935D01*
X116324582Y-53133535D01*
X116663680Y-53473225D01*
X117106959Y-53657290D01*
X117586935Y-53657709D01*
X118030535Y-53474418D01*
X118370225Y-53135320D01*
X118414435Y-53028850D01*
X122859800Y-53028850D01*
X122859800Y-54091204D01*
X122948739Y-54305922D01*
X123113077Y-54470261D01*
X123327795Y-54559200D01*
X124390150Y-54559200D01*
X124536200Y-54413150D01*
X124536200Y-52882800D01*
X124891800Y-52882800D01*
X124891800Y-54413150D01*
X125037850Y-54559200D01*
X126100205Y-54559200D01*
X126314923Y-54470261D01*
X126479261Y-54305922D01*
X126568200Y-54091204D01*
X126568200Y-53028850D01*
X126422150Y-52882800D01*
X124891800Y-52882800D01*
X124536200Y-52882800D01*
X123005850Y-52882800D01*
X122859800Y-53028850D01*
X118414435Y-53028850D01*
X118548908Y-52705000D01*
X128214245Y-52705000D01*
X128332186Y-53297930D01*
X128668054Y-53800591D01*
X129170715Y-54136459D01*
X129763645Y-54254400D01*
X129824355Y-54254400D01*
X130417285Y-54136459D01*
X130919946Y-53800591D01*
X131255814Y-53297930D01*
X131373755Y-52705000D01*
X131369691Y-52684568D01*
X142076396Y-52684568D01*
X142255570Y-53118204D01*
X142587051Y-53450264D01*
X142817597Y-53545995D01*
X142516522Y-53670704D01*
X142423158Y-53906710D01*
X143256000Y-54739553D01*
X144088842Y-53906710D01*
X143995478Y-53670704D01*
X143657966Y-53561023D01*
X143923204Y-53451430D01*
X144255264Y-53119949D01*
X144435195Y-52686626D01*
X144435196Y-52684568D01*
X157316396Y-52684568D01*
X157495570Y-53118204D01*
X157827051Y-53450264D01*
X158260374Y-53630195D01*
X158729568Y-53630604D01*
X159163204Y-53451430D01*
X159495264Y-53119949D01*
X159675195Y-52686626D01*
X159675604Y-52217432D01*
X159496430Y-51783796D01*
X159164949Y-51451736D01*
X158934403Y-51356005D01*
X159235478Y-51231296D01*
X159328842Y-50995290D01*
X158496000Y-50162447D01*
X157663158Y-50995290D01*
X157756522Y-51231296D01*
X158094034Y-51340977D01*
X157828796Y-51450570D01*
X157496736Y-51782051D01*
X157316805Y-52215374D01*
X157316396Y-52684568D01*
X144435196Y-52684568D01*
X144435604Y-52217432D01*
X144256430Y-51783796D01*
X143924949Y-51451736D01*
X143491626Y-51271805D01*
X143022432Y-51271396D01*
X142588796Y-51450570D01*
X142256736Y-51782051D01*
X142076805Y-52215374D01*
X142076396Y-52684568D01*
X131369691Y-52684568D01*
X131255814Y-52112070D01*
X130919946Y-51609409D01*
X130417285Y-51273541D01*
X129824355Y-51155600D01*
X129763645Y-51155600D01*
X129170715Y-51273541D01*
X128668054Y-51609409D01*
X128332186Y-52112070D01*
X128214245Y-52705000D01*
X118548908Y-52705000D01*
X118554290Y-52692041D01*
X118554709Y-52212065D01*
X118371418Y-51768465D01*
X118032320Y-51428775D01*
X117767461Y-51318796D01*
X122859800Y-51318796D01*
X122859800Y-52381150D01*
X123005850Y-52527200D01*
X124536200Y-52527200D01*
X124536200Y-50996850D01*
X124891800Y-50996850D01*
X124891800Y-52527200D01*
X126422150Y-52527200D01*
X126568200Y-52381150D01*
X126568200Y-51318796D01*
X126479261Y-51104078D01*
X126314923Y-50939739D01*
X126100205Y-50850800D01*
X125037850Y-50850800D01*
X124891800Y-50996850D01*
X124536200Y-50996850D01*
X124390150Y-50850800D01*
X123327795Y-50850800D01*
X123113077Y-50939739D01*
X122948739Y-51104078D01*
X122859800Y-51318796D01*
X117767461Y-51318796D01*
X117589041Y-51244710D01*
X117109065Y-51244291D01*
X116665465Y-51427582D01*
X116325775Y-51766680D01*
X116141710Y-52209959D01*
X116141291Y-52689935D01*
X106983600Y-52689935D01*
X106983600Y-49148271D01*
X109462348Y-49148271D01*
X109656638Y-49618487D01*
X110016081Y-49978558D01*
X110485957Y-50173668D01*
X110994731Y-50174112D01*
X111053243Y-50149935D01*
X116141291Y-50149935D01*
X116324582Y-50593535D01*
X116663680Y-50933225D01*
X117106959Y-51117290D01*
X117586935Y-51117709D01*
X118030535Y-50934418D01*
X118370225Y-50595320D01*
X118554290Y-50152041D01*
X118554296Y-50144568D01*
X142076396Y-50144568D01*
X142255570Y-50578204D01*
X142587051Y-50910264D01*
X143020374Y-51090195D01*
X143489568Y-51090604D01*
X143923204Y-50911430D01*
X144255264Y-50579949D01*
X144435195Y-50146626D01*
X144435555Y-49733066D01*
X156993220Y-49733066D01*
X157039520Y-50321700D01*
X157175704Y-50650478D01*
X157411710Y-50743842D01*
X158244553Y-49911000D01*
X158747447Y-49911000D01*
X159580290Y-50743842D01*
X159816296Y-50650478D01*
X159998780Y-50088934D01*
X159952480Y-49500300D01*
X159816296Y-49171522D01*
X159580290Y-49078158D01*
X158747447Y-49911000D01*
X158244553Y-49911000D01*
X157411710Y-49078158D01*
X157175704Y-49171522D01*
X156993220Y-49733066D01*
X144435555Y-49733066D01*
X144435604Y-49677432D01*
X144256430Y-49243796D01*
X143924949Y-48911736D01*
X143491626Y-48731805D01*
X143022432Y-48731396D01*
X142588796Y-48910570D01*
X142256736Y-49242051D01*
X142076805Y-49675374D01*
X142076396Y-50144568D01*
X118554296Y-50144568D01*
X118554709Y-49672065D01*
X118371418Y-49228465D01*
X118032320Y-48888775D01*
X117589041Y-48704710D01*
X117109065Y-48704291D01*
X116665465Y-48887582D01*
X116325775Y-49226680D01*
X116141710Y-49669959D01*
X116141291Y-50149935D01*
X111053243Y-50149935D01*
X111464947Y-49979822D01*
X111825018Y-49620379D01*
X112020128Y-49150503D01*
X112020572Y-48641729D01*
X111826282Y-48171513D01*
X111466839Y-47811442D01*
X110996963Y-47616332D01*
X110488189Y-47615888D01*
X110017973Y-47810178D01*
X109657902Y-48169621D01*
X109462792Y-48639497D01*
X109462348Y-49148271D01*
X106983600Y-49148271D01*
X106983600Y-47604568D01*
X142076396Y-47604568D01*
X142255570Y-48038204D01*
X142587051Y-48370264D01*
X143020374Y-48550195D01*
X143489568Y-48550604D01*
X143923204Y-48371430D01*
X144255264Y-48039949D01*
X144435195Y-47606626D01*
X144435196Y-47604568D01*
X157316396Y-47604568D01*
X157495570Y-48038204D01*
X157827051Y-48370264D01*
X158057597Y-48465995D01*
X157756522Y-48590704D01*
X157663158Y-48826710D01*
X158496000Y-49659553D01*
X159328842Y-48826710D01*
X159235478Y-48590704D01*
X158897966Y-48481023D01*
X159163204Y-48371430D01*
X159495264Y-48039949D01*
X159675195Y-47606626D01*
X159675604Y-47137432D01*
X159496430Y-46703796D01*
X159164949Y-46371736D01*
X158731626Y-46191805D01*
X158262432Y-46191396D01*
X157828796Y-46370570D01*
X157496736Y-46702051D01*
X157316805Y-47135374D01*
X157316396Y-47604568D01*
X144435196Y-47604568D01*
X144435604Y-47137432D01*
X144256430Y-46703796D01*
X143924949Y-46371736D01*
X143491626Y-46191805D01*
X143022432Y-46191396D01*
X142588796Y-46370570D01*
X142256736Y-46702051D01*
X142076805Y-47135374D01*
X142076396Y-47604568D01*
X106983600Y-47604568D01*
X106983600Y-43549720D01*
X107352776Y-43549720D01*
X107636396Y-44236132D01*
X108161105Y-44761758D01*
X108847021Y-45046575D01*
X109589720Y-45047224D01*
X110276132Y-44763604D01*
X110801758Y-44238895D01*
X111086575Y-43552979D01*
X111087224Y-42810280D01*
X110803604Y-42123868D01*
X110278895Y-41598242D01*
X109592979Y-41313425D01*
X108850280Y-41312776D01*
X108163868Y-41596396D01*
X107638242Y-42121105D01*
X107353425Y-42807021D01*
X107352776Y-43549720D01*
X106983600Y-43549720D01*
X106983600Y-40943600D01*
X162483800Y-40943600D01*
X162483800Y-60960000D01*
M02*
